<svg width="2402" height="1201" viewBox="0 0 2402 1201" fill="none" xmlns="http://www.w3.org/2000/svg">
<path d="M1366.06 394.929L1481.41 440.367L1366.06 483.323V544.694L1563.62 464.927V415.847L1366.06 336.08V394.929Z" fill="#A8AFAF"/>
<path d="M306.935 623.219C251.689 623.219 211.216 647.759 207.533 699.282H268.904V698.081C270.105 680.907 286.078 668.657 303.272 670.058C326.592 670.058 337.641 683.549 337.641 706.888V717.938H309.618C249.488 717.938 200.387 736.353 200.387 794.001V796.463C200.387 843.102 234.755 863.959 276.45 863.959C302.232 865.16 325.531 852.91 340.263 833.274V860.296H402.855V705.667C401.654 646.758 361.121 623.439 307.136 623.439L306.935 623.219ZM293.444 818.381C271.346 818.381 261.538 807.332 261.538 791.359V788.897C261.538 768.039 277.491 759.472 309.578 759.472H335.359V781.571C336.56 806.111 315.743 818.401 293.624 818.401L293.444 818.381ZM549.938 815.879C519.252 815.879 503.299 795.022 503.299 748.383V741.017C503.299 695.579 521.714 673.521 549.938 673.521C572.036 673.521 584.306 688.253 587.969 710.351H649.341C644.436 650.221 600.26 623.219 548.697 623.219C487.326 623.219 438.245 664.953 438.245 743.319V745.781C438.245 824.326 484.884 863.599 548.697 863.599C611.289 863.599 646.878 825.567 651.783 774.004H592.894C587.989 799.786 572.036 815.739 549.938 815.739V815.879ZM789.257 815.879C758.571 815.879 742.618 795.022 742.618 748.383V741.017C742.618 695.579 761.034 673.521 789.257 673.521C811.355 673.521 823.626 688.253 827.289 710.351H888.66C883.756 650.221 839.579 623.219 788.016 623.219C726.645 623.219 677.564 664.953 677.564 743.319V745.781C677.564 824.326 724.203 863.599 788.016 863.599C850.608 863.599 886.198 825.567 890.101 774.004H832.413C828.73 799.786 811.556 815.739 789.457 815.739L789.257 815.879ZM1031.02 817.12C1002.99 817.12 985.58 801.167 982.978 759.432H1132.7V732.209C1132.7 656.146 1084.66 622.979 1027.16 622.979C964.563 622.979 916.703 665.934 916.703 743.078V747.983C916.703 825.307 962.141 864.58 1028.4 864.58C1088.53 864.58 1125.36 831.452 1131.48 787.255H1071.35C1068.89 805.671 1050.49 819.162 1030.86 816.68L1031.02 817.12ZM1027.34 667.395C1053.12 667.395 1069.07 682.128 1070.29 716.476H984.379C989.284 679.646 1007.7 668.436 1027.34 667.395Z" fill="#A8AFAF"/>
<path d="M1307.15 623.219C1277.72 622.018 1250.7 636.71 1237.19 662.491V628.123H1173.38V858.855H1237.19V711.592C1238.39 690.735 1256.81 673.561 1277.68 674.762C1301 674.762 1312.05 687.032 1312.05 714.034V858.855H1377.11V704.186C1377.11 647.739 1349.08 623.179 1307.15 623.179V623.219ZM1497.39 785.214V676.163H1541.56V628.123H1497.39V558.165L1433.57 585.187V628.123H1405.55V676.163H1432.57V792.76C1432.57 839.399 1455.89 862.718 1506.23 862.718C1518.5 862.718 1530.77 861.517 1543.06 857.814V807.272C1535.95 809.687 1528.48 810.931 1520.97 810.955C1506.23 810.955 1497.65 802.348 1497.65 785.174L1497.39 785.214ZM1719.51 771.702V777.848C1718.31 798.705 1699.9 815.879 1679.02 814.678C1655.7 814.678 1645.89 802.408 1645.89 775.405V628.123H1580.84V783.993C1580.84 837.998 1611.52 863.759 1653.24 863.759C1667.08 864.416 1680.81 861.059 1692.78 854.091C1704.76 847.123 1714.47 836.842 1720.73 824.486V858.855H1785.79V628.123H1720.73L1719.51 771.702ZM1896.26 669.617V626.662H1832.45V857.394H1896.26V738.355C1896.26 700.323 1922.04 686.812 1966.22 686.812V622.999C1934.31 622.999 1906.09 641.394 1896.26 669.617ZM2201.83 731.209C2201.83 655.145 2153.79 623.219 2096.29 623.219C2033.69 623.219 1985.83 666.174 1985.83 743.319V748.223C1985.83 825.547 2031.27 864.82 2097.53 864.82C2157.66 864.82 2193.25 831.692 2200.61 787.496H2140.48C2135.58 807.112 2117.16 819.402 2097.53 818.181C2069.5 818.181 2052.09 802.228 2049.49 760.493H2199.43V731.069L2201.83 731.209ZM2052.11 716.476C2057.01 678.445 2075.43 667.396 2096.29 667.396C2122.07 667.396 2138.02 682.128 2139.24 716.476H2052.11Z" fill="#A8AFAF"/>
</svg>
