<svg width="4328" height="646" viewBox="0 0 4328 646" fill="none" xmlns="http://www.w3.org/2000/svg">
<g clip-path="url(#clip0_226_554)">
<path d="M411.807 4.61426C589.448 4.61426 732.485 147.657 732.485 325.307C732.485 502.957 589.448 646 411.807 646V4.61426Z" fill="#A8AFAF"/>
<path d="M184.563 0C354.13 50.7571 449.872 229.561 399.117 399.136C348.362 568.711 169.567 665.611 0 613.7L184.563 0Z" fill="#A8AFAF"/>
<path d="M917.047 78.4429H1107.38C1207.73 78.4429 1265.41 136.121 1265.41 213.411C1265.41 260.707 1242.34 298.775 1205.43 319.539V324.154C1238.88 337.996 1282.71 374.911 1282.71 442.971C1282.71 537.564 1207.73 591.782 1122.37 591.782H917.047V78.4429ZM1095.84 289.546C1140.83 289.546 1168.51 261.861 1168.51 222.639C1168.51 183.418 1139.68 159.193 1097 159.193H1010.48V289.546H1095.84ZM1098.15 509.879C1145.44 509.879 1180.05 486.807 1180.05 436.05C1180.05 385.293 1140.83 363.375 1095.84 363.375H1011.64V509.879H1098.15Z" fill="#A8AFAF"/>
<path d="M1321.93 401.443C1321.93 280.318 1395.76 196.107 1500.73 196.107C1567.63 196.107 1604.54 235.329 1618.39 256.093H1623V206.489H1718.74V592.936H1624.15V543.332H1619.54C1608 559.482 1574.55 602.164 1503.03 602.164C1396.91 602.164 1321.93 521.414 1321.93 401.443ZM1626.46 400.289C1626.46 327.614 1582.63 283.779 1522.64 283.779C1462.66 283.779 1419.98 332.229 1419.98 400.289C1419.98 468.35 1461.51 516.8 1523.8 516.8C1584.93 516.8 1626.46 464.889 1626.46 400.289Z" fill="#A8AFAF"/>
<path d="M1787.95 99.2071C1787.95 65.7536 1812.18 43.8357 1846.78 43.8357C1881.39 43.8357 1905.61 65.7536 1905.61 99.2071C1905.61 132.661 1881.39 154.579 1846.78 154.579C1812.18 154.579 1787.95 133.814 1787.95 99.2071ZM1799.49 206.489H1895.23V592.936H1799.49V206.489Z" fill="#A8AFAF"/>
<path d="M1973.67 206.489H2063.64V269.936H2069.41C2082.1 239.943 2116.71 205.336 2170.92 205.336H2206.68V296.468H2167.46C2106.32 296.468 2069.41 341.457 2069.41 410.671V594.089H1973.67V206.489Z" fill="#A8AFAF"/>
<path d="M2233.21 401.443C2233.21 279.164 2315.11 196.107 2428.16 196.107C2552.74 196.107 2619.64 288.393 2619.64 396.829V426.821H2325.49C2328.95 485.654 2369.33 524.875 2430.46 524.875C2477.76 524.875 2513.52 502.957 2526.2 471.811H2615.03C2595.42 550.254 2527.36 602.164 2427 602.164C2313.96 602.164 2233.21 516.8 2233.21 401.443ZM2528.51 359.914C2523.9 308.004 2483.52 273.396 2428.16 273.396C2372.79 273.396 2333.57 311.464 2327.8 359.914H2528.51Z" fill="#A8AFAF"/>
<path d="M2663.47 476.425H2751.14C2754.6 509.879 2781.13 527.182 2824.97 527.182C2868.8 527.182 2894.18 507.571 2894.18 481.039C2894.18 399.136 2672.7 476.425 2672.7 314.925C2672.7 249.171 2729.22 196.107 2824.97 196.107C2909.17 196.107 2971.46 238.789 2977.23 316.079H2893.02C2888.41 288.393 2866.49 269.936 2824.97 269.936C2785.75 269.936 2761.52 287.239 2761.52 311.464C2761.52 385.293 2988.76 308.004 2988.76 475.271C2988.76 549.1 2928.78 602.164 2826.12 602.164C2720 602.164 2666.93 552.561 2663.47 476.425Z" fill="#A8AFAF"/>
<path d="M3060.28 78.4429H3233.31C3397.11 78.4429 3495.16 184.571 3495.16 334.536C3495.16 493.729 3397.11 592.936 3233.31 592.936H3060.28V78.4429ZM3229.85 507.571C3319.82 507.571 3394.8 454.507 3394.8 334.536C3394.8 214.564 3320.98 163.807 3229.85 163.807H3158.33V507.571H3229.85Z" fill="#A8AFAF"/>
<path d="M3540.15 401.443C3540.15 279.164 3622.05 196.107 3735.09 196.107C3859.67 196.107 3926.58 288.393 3926.58 396.829V426.821H3632.43C3635.89 485.654 3676.26 524.875 3737.4 524.875C3784.69 524.875 3820.45 502.957 3833.14 471.811H3921.96C3902.35 550.254 3834.29 602.164 3733.94 602.164C3620.89 602.164 3540.15 516.8 3540.15 401.443ZM3835.45 359.914C3830.83 308.004 3790.46 273.396 3735.09 273.396C3679.72 273.396 3640.5 311.464 3634.74 359.914H3835.45Z" fill="#A8AFAF"/>
<path d="M3936.96 206.489H4037.31L4129.59 478.732H4135.36L4226.49 206.489H4329.15L4187.27 592.936H4078.84L3936.96 206.489Z" fill="#A8AFAF"/>
</g>
<defs>
<clipPath id="clip0_226_554">
<rect width="4328" height="646" fill="white"/>
</clipPath>
</defs>
</svg>
