<svg width="1821" height="337" viewBox="0 0 1821 337" fill="none" xmlns="http://www.w3.org/2000/svg">
<path fill-rule="evenodd" clip-rule="evenodd" d="M823.934 333.639C813.208 333.639 805.563 332.183 805.074 332.021C800.688 331.211 797.6 327.001 798.249 322.468C798.9 317.935 802.804 314.697 807.352 315.021L807.785 315.041C810.136 315.165 821.88 315.783 839.055 315.344C858.733 312.106 881.981 301.097 888.968 267.907C890.757 259.488 888.647 251.717 883.281 246.859C874.986 239.088 859.383 238.116 839.384 243.784C820.685 249.125 807.681 261.107 798.574 274.059L797.144 277.943C794.791 284.333 792.642 290.166 790.609 295.43C789.837 297.405 789.117 299.262 788.44 301.007C786.119 306.988 784.315 311.637 782.805 315.021C780.204 320.849 776.626 328.782 768.661 326.516C764.433 325.383 761.831 321.172 762.645 316.963C762.808 315.669 765.409 300.126 774.025 282.153C735.657 315.83 701.839 332.183 660.87 332.183C641.685 332.183 628.029 326.193 620.224 314.372C618.11 311.135 616.648 307.736 615.509 304.173C611.77 308.382 607.868 312.268 603.479 315.669C587.221 328.62 567.874 334.611 551.778 332.021C533.244 328.944 515.196 313.239 520.237 278.431C520.888 273.574 522.351 269.04 524.138 264.832C516.175 269.362 507.725 274.379 499.273 279.396L498.865 279.637C446.15 310.65 391.714 342.675 358.307 330.401C346.926 326.193 338.96 317.45 334.57 304.173C331.806 295.915 330.181 286.688 329.693 276.973C304.493 295.107 276.692 309.192 247.265 318.258C220.114 326.678 180.118 332.183 145.164 332.183H9.57185C4.85714 332.183 0.955078 328.297 0.955078 323.602C0.955078 318.907 4.85714 315.021 9.57185 315.021H144.839C172.153 315.021 212.635 310.973 241.737 301.907C273.44 292.032 303.03 276.164 329.367 255.441C331.319 223.869 340.423 189.222 349.69 161.374C365.624 113.128 389.848 61.3175 410.007 32.3381C434.07 -2.14801 450.165 0.766256 457.643 5.62337C469.837 13.5565 472.438 35.8989 464.96 68.4424C459.432 92.2411 446.262 131.746 414.235 184.365C395.701 214.964 372.614 241.84 346.113 263.86C345.788 277.622 347.251 289.279 350.34 298.668C353.104 306.764 357.494 311.944 363.835 314.211C389.514 323.7 444.556 291.328 489.272 265.03L490.16 264.507C512.921 251.068 534.544 238.44 552.59 230.345C610.306 204.927 629.329 211.565 633.719 214.318C636.969 216.26 638.596 219.983 637.621 223.706C636.808 227.431 633.555 230.022 629.816 230.183C629.004 230.183 543.325 236.012 536.82 280.697C535.194 292.193 535.194 311.783 554.053 314.859C572.913 317.935 601.528 303.202 614.86 272.603C617.021 261.84 620.355 253.703 620.964 252.221L621.037 252.039C622.826 247.992 627.215 246.05 631.443 247.345C635.669 248.64 638.108 252.85 637.296 257.06C635.994 264.183 633.881 270.984 631.28 277.46C629.491 287.011 629.329 297.535 634.043 304.822C638.433 311.458 647.213 314.859 660.219 314.859C705.903 314.859 742.972 290.735 791.91 240.546C792.803 237.96 793.735 235.373 794.669 232.785C795.603 230.195 796.543 227.592 797.438 225.003L802.731 210.571C829.766 136.868 861.06 51.5543 876.614 31.2035C884.091 21.4893 893.685 16.6321 902.79 17.9284C911.245 19.2231 918.233 25.6998 921.971 35.7373C927.827 51.765 925.388 75.2424 914.984 102.118C902.301 134.984 878.893 170.765 845.401 208.651C841.422 213.19 837.443 217.615 833.568 221.925C830.953 224.839 828.378 227.698 825.891 230.507C828.811 229.374 831.739 228.241 834.828 227.431C868.159 217.878 886.04 225.975 895.145 234.393C904.9 243.46 908.967 257.383 906.039 271.631C902.14 290.25 894.174 303.202 884.58 312.43C898.234 310.811 912.705 308.707 927.338 305.468C960.669 298.021 1017.57 272.603 1046.51 231.478C1042.93 227.431 1040.5 223.384 1039.68 218.85C1038.06 209.297 1041.15 203.145 1043.91 199.746C1049.92 192.298 1059.36 191.65 1060.33 191.65C1061.31 191.65 1062.28 191.65 1063.25 191.975C1070.73 194.241 1074.8 200.717 1074.48 209.297C1074.31 214.802 1072.04 221.441 1068.29 228.564C1069.1 229.281 1069.97 230 1070.8 230.689C1071.46 231.246 1072.1 231.782 1072.69 232.288C1089.27 246.375 1111.87 265.64 1105.85 290.896C1103.9 299.154 1100.65 306.116 1095.94 311.783C1111.87 309.678 1129.26 305.468 1147.31 298.021C1212.36 270.846 1226.16 236.114 1226.94 234.153L1226.98 234.069C1228.44 229.697 1233.15 227.269 1237.54 228.564C1241.93 229.86 1244.54 234.393 1243.56 238.765C1240.31 252.364 1234.45 291.545 1247.3 307.736C1251.2 312.755 1256.56 315.021 1264.05 315.021C1309.4 315.021 1372 273.574 1416.22 216.097C1415.25 197.965 1417.68 178.05 1423.86 156.355C1427.82 142.186 1432.2 128.794 1436.87 116.284L1339.32 118.782H1339.16C1334.44 118.782 1330.7 115.058 1330.54 110.364C1330.38 105.669 1334.12 101.783 1338.84 101.621L1443.76 98.9354C1466.71 44.469 1494.35 10.4735 1512.14 7.88997C1518.31 6.91855 1523.69 9.34709 1526.94 14.366C1534.74 26.4414 1527.59 55.6206 1507.51 97.3034L1724.64 91.7437H1724.79C1729.52 91.7437 1733.25 95.4675 1733.42 100.163C1733.58 104.859 1729.84 108.745 1725.13 108.906L1498.76 114.701C1484.76 141.475 1466.26 172.469 1443.69 206.708C1440.44 211.565 1437.19 216.26 1433.62 220.954C1435.57 238.116 1441.42 253.175 1451.18 265.803C1489.2 315.225 1575.13 314.87 1577.62 314.859H1577.67H1804.62C1809.34 314.859 1813.25 318.744 1813.25 323.44C1813.25 328.136 1809.34 332.021 1804.62 332.021H1577.67H1577.51C1571.88 332.031 1480.76 332.205 1437.51 276.325C1428.9 265.155 1422.88 252.688 1419.3 238.926C1401.91 259.488 1381.91 278.106 1361.1 293.488C1326.47 318.744 1292.82 332.021 1263.56 332.021C1250.87 332.021 1240.47 327.164 1233.31 318.096C1223.4 305.468 1221.28 286.688 1221.77 270.012C1208.44 283.611 1187.14 299.639 1153.82 313.564C1110.89 331.534 1071.87 332.183 1046.02 329.268C1029.87 328.34 1016.39 323.719 1014.37 323.025L1014.16 322.954C1009.77 321.335 1007.49 316.479 1008.95 312.106C1010.58 307.736 1015.29 305.306 1019.85 306.926C1020.17 307.087 1031.72 310.811 1050.41 312.593C1058.54 312.755 1066.99 311.621 1074.15 307.897C1081.79 303.687 1086.67 296.887 1089.11 287.011C1092.67 271.828 1076.18 257.773 1061.57 245.328L1061.47 245.24C1060.9 244.674 1060.25 244.187 1059.64 243.725C1059.37 243.525 1059.11 243.33 1058.87 243.135C1052.2 251.878 1043.75 261.107 1033.99 269.688C1005.22 295.107 968.635 313.726 930.915 321.982C896.445 329.592 863.121 332.021 839.544 332.506C833.857 333.316 828.49 333.639 823.934 333.639ZM1439.95 161.051C1444.72 144.361 1449.88 129.3 1455.21 115.815L1478.88 115.21C1467.72 135.924 1453.08 160.685 1433.94 190.032C1435.08 180.964 1437.03 171.25 1439.95 161.051ZM1512.79 25.375C1513.64 32.1004 1509.95 53.7649 1487.93 97.8041L1462.53 98.4532C1483.14 52.5431 1504.43 29.1243 1512.79 25.375ZM447.726 19.8713C445.612 19.8713 437.484 23.1088 424.152 42.214C408.057 65.2032 383.833 112.803 365.949 166.879C357.169 193.592 351.154 218.04 348.227 239.249C367.736 220.792 385.134 199.583 399.603 175.622C423.664 135.956 440.898 96.6133 448.215 64.7184C455.693 32.3381 450.165 21.3276 448.215 20.0329C448.215 19.8713 448.051 19.8713 447.726 19.8713ZM1056.76 210.593C1056.43 211.24 1056.27 212.049 1056.1 212.86C1056.2 212.378 1056.36 211.898 1056.5 211.449C1056.6 211.145 1056.68 210.855 1056.76 210.593ZM899.702 34.9276C897.584 34.9276 894.174 36.7088 890.268 41.5658C876.775 59.2131 846.861 140.328 822.153 208.651C823.869 206.686 825.626 204.719 827.407 202.73C829.004 200.952 830.616 199.149 832.228 197.317C905.068 114.908 912.705 60.671 905.718 41.5658C904.25 37.6801 902.14 35.0892 900.191 34.7659C900.022 34.9276 899.862 34.9276 899.702 34.9276ZM1246.49 204.591H1246.81C1249.08 204.591 1252.82 203.783 1257.38 199.734C1260.79 196.657 1262.42 193.743 1262.75 192.934L1247.32 185.335C1247.41 185.223 1247.46 185.162 1247.46 185.162L1247.3 185.325L1247.32 185.335C1247.06 185.629 1246.5 186.283 1245.68 187.105C1245.48 187.295 1245.29 187.43 1245.13 187.541C1245.02 187.619 1244.93 187.687 1244.86 187.753C1241.12 188.563 1238.35 191.801 1238.19 195.848C1238.03 200.543 1241.77 204.429 1246.49 204.591Z" fill="#A8AFAF"/>
</svg>
