<svg width="5159" height="1644" viewBox="0 0 5159 1644" fill="none" xmlns="http://www.w3.org/2000/svg">
<path d="M5078.36 0H3595.67C3551.35 0 3515.02 36.1115 3515.02 80.5841V1563.11C3515.02 1607.42 3551.29 1643.54 3595.67 1643.54H5078.36C5122.63 1643.54 5158.95 1607.42 5158.95 1563.11V80.5841C5159 36.1115 5122.68 0 5078.36 0Z" fill="#A8AFAF"/>
<path d="M5048.91 979.679C4989.45 904.276 4843.96 888.477 4765.21 888.477C4436.98 888.477 4122.91 949.466 3834.02 1061.03C3836.54 975.421 3834.07 889.708 3824.43 805.123C4044.36 740.953 4432.41 689.402 4687.85 711.766C4926.45 732.695 5016.34 865.651 5048.91 979.679Z" fill="white"/>
<path d="M4942.1 761.984C4875.56 699.507 4824.82 654.47 4623.05 625.283C4421.33 596.251 3994.55 640.159 3805.65 687.709C3792.11 613.075 3773.9 539.365 3751.12 467.142C3880.5 444.418 4013.68 432.466 4149.74 432.466C4281.84 432.466 4411.58 443.751 4537.53 465.244C4804.35 510.947 4889.26 660.369 4942.1 761.984Z" fill="white"/>
<path d="M3606.5 140.189C4293.54 122.338 4679.48 423.079 4756.33 505.92C4689.43 450.163 4560.36 402.664 4449.19 381.223C4312.57 355.011 4171.54 341.367 4026.71 341.367C3920.88 341.367 3816.58 348.753 3714.69 363.116C3688.73 295.355 3640.61 204.358 3606.5 140.189Z" fill="white"/>
<path d="M4942.1 1415.02C5052.61 1186.7 5026.7 1146.8 4809.69 1173.21C4472.38 1214.4 4047.18 1358.8 3725.98 1532.23C3784.57 1418.86 3813.14 1304.73 3824.43 1201.79C4134.55 1065.65 4475.76 987.271 4834.47 980.192C5210 972.754 5069.07 1260.01 4942.1 1415.02Z" fill="white"/>
<path d="M2148.54 961.726C2195.02 954.955 2264.17 949.825 2341.02 949.825C2435.88 949.825 2502.16 962.649 2547.77 994.708C2585.63 1021.89 2606.56 1079.04 2606.56 1131.61C2606.56 1204.4 2559.57 1256.31 2504.63 1274.11V1276.62C2531.92 1314.69 2695.16 1524.38 2695.16 1524.38H2535.56L2364.06 1300.27H2291.77V1524.38H2148.54V961.726ZM2291.77 1207.22H2348.57C2420.7 1207.22 2463.33 1175.11 2463.33 1125C2463.33 1072.57 2423.47 1046.36 2357.13 1045.49C2322.09 1045.49 2302.09 1048 2291.72 1049.59L2291.77 1207.22ZM29.3449 1392.04C68.3346 1409.84 128.05 1427.43 189.716 1427.43C256.152 1427.43 291.243 1402.91 291.243 1365.77C291.243 1330.12 260.975 1309.71 183.919 1285.19C77.7229 1252.16 8.46487 1199.78 8.46487 1116.64C8.46487 1019.12 99.4751 944.593 250.304 944.593C322.435 944.593 375.635 958.289 413.701 973.523L381.432 1077.65C355.832 1066.67 310.276 1050.52 247.533 1050.52C184.996 1050.52 154.522 1076.01 154.522 1105.56C154.522 1142.18 190.69 1158.13 273.236 1186.04C386.306 1223.48 439.404 1275.8 439.404 1356.39C439.404 1452 356.858 1534.33 181.302 1534.33C108.145 1534.33 36.0655 1516.58 0 1498.73L29.3449 1392.04ZM870.343 1283.5H634.865V1419.12H897.789V1524.94H489.629V953.98H884.502V1059.85H634.968V1178.5H870.394L870.343 1283.5ZM1483.46 1498.73C1438.82 1512.38 1354.38 1530.94 1269.83 1530.94C1153.12 1530.94 1068.68 1504.58 1009.73 1453.85C950.836 1404.71 918.567 1330.18 919.541 1246.51C920.567 1056.62 1075.19 948.03 1285.02 948.03C1367.56 948.03 1431.13 962.393 1462.52 976.14L1432.2 1079.4C1397.06 1065.91 1353.4 1054.77 1283.12 1054.77C1162.71 1054.77 1071.55 1115.82 1071.55 1239.54C1071.55 1357.26 1154.1 1426.82 1272.71 1426.82C1305.9 1426.82 1332.52 1423.43 1343.91 1418.35V1298.89L1344.32 1198.14H1483.4L1483.46 1498.73ZM1693.18 954.032V1282.73C1693.18 1380.91 1734.94 1430.92 1808.92 1430.92C1884.9 1430.92 1926.66 1383.68 1926.66 1282.73V954.032H2070.92V1274.26C2070.92 1450.56 1971.24 1534.33 1804.2 1534.33C1642.8 1534.33 1547.84 1454.67 1547.84 1272.57V954.134H1693.13L1693.18 954.032ZM3259.8 1233.69C3259.8 1420.71 3132.62 1534.33 2945.62 1534.33C2755.75 1534.33 2644.78 1406.4 2644.78 1243.74C2644.78 1072.68 2767.24 944.593 2956.09 944.593C3152.63 944.645 3259.8 1076.01 3259.8 1233.69ZM2797.61 1241.13C2797.61 1353.1 2856.46 1431.89 2953.21 1431.89C3051 1431.89 3107.02 1348.85 3107.02 1237.95C3107.02 1135.31 3052.02 1047.03 2952.24 1047.03C2854.56 1047.13 2797.61 1130.23 2797.61 1241.13Z" fill="#A8AFAF"/>
<path d="M505.429 161.527C454.127 124.749 377.533 106.898 271.234 106.898C179.198 106.898 101.373 111.412 39.2969 120.645V794.556H201.463C201.463 782.809 201.463 545.161 201.463 545.161L208.44 546.187C224.036 548.187 244.557 549.264 267.541 549.264C374.66 549.264 460.899 524.438 516.613 477.452C561.349 439.647 585.974 382.608 585.974 317.309C586.128 254.371 556.783 197.587 505.429 161.527ZM266.566 441.135C238.76 441.135 220.856 439.75 206.388 436.775L201.463 435.646V220.721L206.029 219.388C214.135 217.592 236.913 213.13 280.52 213.13C370.453 213.13 424.115 253.601 424.115 321.413C424.115 395.175 363.732 441.135 266.566 441.135ZM989.671 100.794C770.303 100.794 616.909 247.856 616.909 458.575C616.909 666.268 761.735 805.995 976.948 805.995C1205.5 805.995 1353.1 664.78 1353.1 446.111C1353.15 274.17 1240.8 100.794 989.671 100.794ZM986.234 693.557C867.315 693.557 790.567 600.046 790.567 455.395C790.567 310.487 868.649 213.13 985.105 213.13C1099.56 213.13 1179.54 311.103 1179.54 451.291C1179.54 598.507 1103.72 693.557 986.234 693.557ZM1845.85 502.381L1844.67 500.791V491.199L1848.93 489.711C1904.29 471.963 1968.88 417.232 1968.88 322.08C1968.88 254.832 1941.12 189.945 1899.93 160.399C1847.55 123.364 1770.95 106.898 1651.62 106.898C1568.26 106.898 1485.51 111.976 1423.28 120.594V794.505H1585.39C1585.39 782.604 1585.39 521.309 1585.39 521.309H1682.82C1682.82 521.309 1888.02 789.58 1891.77 794.505H2070.35C2033.52 747.108 1875.2 543.109 1845.85 502.381ZM1660.91 420.258H1585.44V217.182L1590.52 216.31C1612.07 212.822 1639.26 211.078 1671.53 211.078C1758.79 212.206 1806.92 248.831 1806.92 314.18C1806.86 379.735 1751.1 420.258 1660.91 420.258ZM2577.78 112.079C2577.78 122.748 2577.78 220.978 2577.78 231.647C2566.14 231.647 2365.19 231.647 2365.19 231.647C2365.19 231.647 2365.19 782.502 2365.19 794.607C2354.11 794.607 2211.95 794.607 2200.76 794.607C2200.76 782.502 2200.76 231.647 2200.76 231.647C2200.76 231.647 2003.3 231.647 1991.66 231.647C1991.66 220.978 1991.66 122.748 1991.66 112.079C2003.81 112.079 2565.83 112.079 2577.78 112.079ZM2929.36 100.794C2710.04 100.794 2556.65 247.856 2556.65 458.575C2556.65 666.268 2701.27 805.995 2916.79 805.995C3145.24 805.995 3292.89 664.78 3292.89 446.111C3292.78 274.17 3180.53 100.794 2929.36 100.794ZM2925.92 693.557C2807.1 693.557 2730.41 600.046 2730.41 455.395C2730.41 310.487 2808.44 213.13 2924.89 213.13C3039.45 213.13 3119.43 311.103 3119.43 451.291C3119.33 598.507 3043.51 693.557 2925.92 693.557Z" fill="#A8AFAF"/>
</svg>
