<svg width="11450" height="1646" viewBox="0 0 11450 1646" fill="none" xmlns="http://www.w3.org/2000/svg">
<path d="M325.833 771.76L970.681 128.031C1005.53 93.322 1046.82 65.841 1092.27 47.0909C1137.71 28.2692 1186.44 18.6079 1235.61 18.6079C1284.84 18.6079 1333.5 28.2692 1379.02 47.0909C1424.46 65.841 1465.75 93.322 1500.6 128.031L1550.77 178.341L1450.22 278.676L1400.06 228.58C1378.44 207.182 1352.9 190.15 1324.7 178.556C1296.58 166.963 1266.45 161.023 1235.96 161.023C1205.55 161.023 1175.35 166.963 1147.23 178.556C1119.1 190.15 1093.48 207.182 1071.87 228.58L426.593 872.166L325.833 771.76Z" fill="#A8AFAF"/>
<path d="M642.495 1085C572.506 1156.42 476.827 1197 376.711 1197.5C276.596 1198.07 180.416 1158.64 109.64 1087.93C38.8646 1017.23 -0.566352 921.259 0.00614808 821.282C0.578648 721.377 41.2262 625.838 112.861 555.99L669.76 0L770.306 100.334L213.406 656.325C169.753 699.836 145.278 758.878 145.278 820.424C145.207 881.97 169.681 940.94 213.263 984.523C256.844 1028.03 315.955 1052.51 377.57 1052.51C439.257 1052.58 498.368 1028.11 542.021 984.594L1187.52 340.149L1288.06 440.555L642.495 1085ZM2011.77 677.365C2030.52 722.737 2040.25 771.401 2040.25 820.495C2040.25 869.589 2030.52 918.253 2011.77 963.626C1992.95 1009 1965.4 1050.22 1930.62 1085L1373.72 1640.99L1272.96 1540.58L1829.22 984.594C1840.09 973.931 1849.9 962.266 1858.49 949.599C1867.07 937.003 1874.3 923.549 1880.17 909.522C1886.11 895.424 1890.55 880.825 1893.55 865.868C1896.49 850.91 1897.99 835.739 1897.92 820.495C1897.92 774.622 1884.25 729.822 1858.7 691.678C1833.22 653.534 1796.94 623.762 1754.51 606.229C1712.07 588.695 1665.34 584.044 1620.25 592.989C1575.17 601.863 1533.81 623.977 1501.25 656.325L855.752 1300.77L755.206 1200.44L1400.77 555.99C1435.55 521.353 1476.91 493.8 1522.36 475.05C1567.8 456.3 1616.53 446.71 1665.7 446.71C1714.86 446.71 1763.59 456.3 1809.04 475.05C1854.48 493.8 1895.84 521.353 1930.62 555.99C1965.4 590.771 1992.95 631.992 2011.77 677.365Z" fill="#A8AFAF"/>
<path d="M1717.43 868.73L1071.86 1513.39C1037.08 1548.1 995.72 1575.58 950.278 1594.33C904.836 1613.08 856.102 1622.74 806.939 1622.74C757.775 1622.74 709.045 1613.08 663.603 1594.33C618.16 1575.58 576.797 1548.1 542.018 1513.39L491.853 1463.08L592.398 1362.74L642.492 1413.06C664.103 1434.52 689.794 1451.63 717.986 1463.22C746.182 1474.89 776.381 1480.9 806.939 1480.9C837.496 1480.9 867.695 1474.89 895.891 1463.22C924.086 1451.63 949.777 1434.52 971.389 1413.06L1616.88 768.825L1717.43 868.73Z" fill="#A8AFAF"/>
<path fill-rule="evenodd" clip-rule="evenodd" d="M2629.79 993.754C2631.44 1003.2 2633.94 1012.5 2637.31 1021.45C2640.67 1030.47 2644.89 1039.13 2649.9 1047.29C2654.84 1055.52 2660.64 1063.24 2667.01 1070.33C2673.45 1077.49 2680.53 1084 2688.19 1089.79C2696.99 1095.88 2706.29 1101.17 2715.95 1105.75C2725.62 1110.33 2735.63 1114.13 2745.94 1117.06C2756.17 1119.92 2766.69 1122.07 2777.28 1123.29C2787.95 1124.5 2798.68 1124.86 2809.34 1124.29C2819.5 1124.93 2829.67 1124.72 2839.76 1123.57C2849.92 1122.43 2859.87 1120.35 2869.6 1117.49C2879.4 1114.56 2888.85 1110.84 2897.94 1106.25C2907.03 1101.67 2915.68 1096.31 2923.84 1090.22C2930.36 1084.79 2936.22 1078.7 2941.38 1071.9C2946.53 1065.18 2950.89 1057.81 2954.4 1050.08C2957.84 1042.35 2960.41 1034.26 2962.06 1025.89C2963.7 1017.59 2964.42 1009.14 2964.13 1000.62C2964.28 996.689 2964.13 992.681 2963.7 988.745C2963.27 984.809 2962.63 980.944 2961.77 977.08C2960.84 973.215 2959.7 969.422 2958.26 965.701C2956.9 961.98 2955.26 958.401 2953.4 954.894C2951.47 951.746 2949.46 948.668 2947.24 945.734C2945.03 942.8 2942.59 939.937 2940.09 937.29C2937.51 934.642 2934.86 932.137 2932 929.704C2929.21 927.342 2926.2 925.195 2923.13 923.12C2919.48 920.686 2915.68 918.396 2911.82 916.178C2908.03 914.031 2904.09 911.955 2900.08 910.023C2896.15 908.162 2892.07 906.373 2887.99 904.727C2883.91 903.081 2879.69 901.65 2875.54 900.29L2811.85 881.039L2751.16 864.579C2742.79 862.361 2734.42 859.999 2726.12 857.351C2717.81 854.775 2709.59 851.912 2701.43 848.906C2693.27 845.972 2685.18 842.752 2677.17 839.388C2669.15 836.025 2661.21 832.446 2653.41 828.725C2646.68 825.505 2640.03 822.141 2633.59 818.42C2627.07 814.77 2620.78 810.905 2614.55 806.755C2608.4 802.604 2602.31 798.238 2596.52 793.73C2590.65 789.15 2584.92 784.355 2579.41 779.345C2574.47 774.765 2569.82 769.97 2565.46 764.96C2561.02 759.879 2556.94 754.655 2553.08 749.145C2549.21 743.706 2545.64 738.052 2542.42 732.184C2539.19 726.315 2536.26 720.304 2533.61 714.148C2530.82 707.421 2528.39 700.479 2526.31 693.465C2524.24 686.452 2522.52 679.367 2521.16 672.139C2519.8 664.911 2518.87 657.683 2518.23 650.383C2517.65 643.083 2517.44 635.784 2517.58 628.484C2517.51 620.326 2517.87 612.239 2518.73 604.152C2519.52 596.137 2520.8 588.121 2522.59 580.178C2524.31 572.305 2526.46 564.433 2529.1 556.776C2531.68 549.118 2534.76 541.604 2538.19 534.233C2541.56 527.148 2545.28 520.206 2549.43 513.479C2553.51 506.752 2558.02 500.311 2562.88 494.156C2567.75 487.93 2572.97 482.062 2578.55 476.408C2584.14 470.826 2590 465.602 2596.16 460.664C2602.89 455.225 2609.97 450.144 2617.2 445.42C2624.5 440.625 2631.94 436.26 2639.67 432.181C2647.33 428.173 2655.2 424.452 2663.21 421.16C2671.23 417.868 2679.46 414.934 2687.76 412.429C2697.42 409.351 2707.29 406.632 2717.24 404.413C2727.12 402.123 2737.14 400.191 2747.23 398.76C2757.32 397.257 2767.48 396.183 2777.64 395.539C2787.8 394.895 2797.96 394.681 2808.2 394.824C2892.28 394.824 2958.91 414.647 3008.07 454.223C3020.24 464.027 3031.4 474.977 3041.35 486.928C3051.37 498.951 3060.1 511.833 3067.54 525.573C3074.91 539.242 3080.99 553.698 3085.5 568.584C3090.08 583.47 3093.16 598.785 3094.66 614.243L2957.26 625.478C2955.55 617.678 2953.18 610.02 2950.18 602.649C2947.17 595.278 2943.52 588.193 2939.3 581.394C2935.08 574.667 2930.21 568.298 2924.85 562.429C2919.48 556.49 2913.61 551.051 2907.31 546.184C2899.73 541.031 2891.64 536.594 2883.27 532.73C2874.89 528.937 2866.24 525.86 2857.36 523.426C2848.49 520.993 2839.4 519.347 2830.24 518.417C2821.08 517.486 2811.85 517.272 2802.69 517.773C2794.03 517.272 2785.37 517.558 2776.71 518.488C2768.12 519.49 2759.61 521.208 2751.31 523.713C2742.93 526.146 2734.85 529.295 2727.12 533.159C2719.32 536.952 2711.87 541.461 2704.93 546.614C2699.28 550.979 2694.2 555.989 2689.76 561.571C2685.25 567.081 2681.46 573.164 2678.46 579.605C2675.38 585.974 2673.09 592.773 2671.59 599.715C2670.15 606.657 2669.44 613.813 2669.65 620.898C2669.51 624.691 2669.58 628.484 2670.01 632.277C2670.37 635.998 2670.94 639.72 2671.87 643.441C2672.73 647.091 2673.8 650.741 2675.16 654.248C2676.52 657.826 2678.1 661.261 2679.96 664.553C2681.75 667.63 2683.75 670.636 2685.97 673.427C2688.12 676.29 2690.48 679.009 2692.98 681.586C2695.42 684.162 2698.06 686.595 2700.85 688.885C2703.57 691.175 2706.51 693.251 2709.51 695.183C2713.16 697.616 2716.88 699.835 2720.75 701.982C2724.54 704.129 2728.41 706.204 2732.34 708.136C2736.28 709.997 2740.29 711.786 2744.36 713.432C2748.37 715.15 2752.52 716.654 2756.67 718.085C2775.21 724.955 2796.25 732.255 2819.65 739.769L2877.83 757.875C2913.97 769.254 2946.74 781.134 2976.01 793.515C2982.74 796.378 2989.39 799.455 2995.91 802.818C3002.35 806.182 3008.72 809.76 3014.94 813.553C3021.17 817.418 3027.25 821.497 3033.19 825.719C3039.13 830.013 3044.86 834.522 3050.44 839.245C3055.52 843.467 3060.24 847.976 3064.82 852.771C3069.33 857.566 3073.55 862.575 3077.56 867.8C3081.5 873.024 3085.14 878.534 3088.51 884.188C3091.87 889.842 3094.95 895.639 3097.67 901.65C3100.6 908.735 3103.11 915.963 3105.33 923.263C3107.47 930.634 3109.26 938.077 3110.62 945.591C3112.05 953.105 3112.98 960.691 3113.63 968.349C3114.2 975.935 3114.34 983.592 3114.13 991.25C3114.2 1000.2 3113.84 1009.14 3112.91 1018.02C3111.98 1026.89 3110.55 1035.76 3108.62 1044.42C3106.69 1053.15 3104.25 1061.81 3101.39 1070.26C3098.46 1078.7 3095.09 1087 3091.23 1095.02C3087.51 1102.82 3083.36 1110.33 3078.85 1117.63C3074.27 1124.93 3069.26 1131.95 3063.96 1138.67C3058.6 1145.4 3052.87 1151.77 3046.79 1157.85C3040.7 1163.94 3034.26 1169.73 3027.54 1175.03C3020.31 1180.75 3012.87 1186.12 3005.14 1191.2C2997.41 1196.21 2989.39 1200.86 2981.24 1205.16C2973.08 1209.45 2964.78 1213.39 2956.26 1216.89C2947.74 1220.4 2939.01 1223.55 2930.21 1226.27C2920.19 1229.42 2910.03 1232.14 2899.8 1234.43C2889.49 1236.72 2879.19 1238.65 2868.81 1240.15C2858.36 1241.73 2847.92 1242.8 2837.4 1243.52C2826.95 1244.16 2816.43 1244.45 2805.91 1244.3C2787.37 1245.02 2768.91 1244.23 2750.52 1242.09C2732.13 1239.94 2713.95 1236.29 2696.13 1231.28C2678.31 1226.27 2660.92 1219.9 2644.11 1212.24C2627.29 1204.51 2611.12 1195.57 2595.66 1185.33C2581.2 1174.89 2567.89 1162.93 2555.87 1149.77C2543.92 1136.53 2533.33 1122.07 2524.31 1106.68C2515.36 1091.3 2507.99 1074.98 2502.41 1058.02C2496.76 1041.06 2492.97 1023.6 2491.03 1005.92L2629.79 993.754ZM3736.51 398.617C3750.82 399.833 3765.06 401.766 3779.16 404.413C3793.33 406.99 3807.28 410.282 3821.09 414.289C3834.91 418.226 3848.5 422.877 3861.81 428.173C3873.98 433.04 3885.93 438.55 3897.45 444.705C3909.04 450.859 3920.35 457.586 3931.23 464.958C3942.03 472.257 3952.55 480.201 3962.57 488.646C3972.59 497.09 3982.11 506.036 3991.2 515.483C4000.29 525.144 4008.87 535.306 4016.96 545.826C4025.05 556.346 4032.63 567.224 4039.57 578.532C4046.52 589.839 4052.96 601.432 4058.75 613.384C4064.55 625.264 4069.77 637.501 4074.35 649.954C4079.36 663.623 4083.73 677.506 4087.52 691.605C4091.24 705.703 4094.39 719.946 4096.9 734.331C4099.33 748.715 4101.19 763.171 4102.33 777.699C4103.48 792.227 4104.05 806.826 4103.84 821.425C4104.05 836.239 4103.55 851.053 4102.33 865.867C4101.12 880.681 4099.19 895.424 4096.54 910.023C4093.96 924.622 4090.6 939.079 4086.59 953.392C4082.58 967.705 4077.86 981.731 4072.49 995.615C4067.48 1008.21 4061.83 1020.45 4055.53 1032.47C4049.31 1044.49 4042.36 1056.16 4034.92 1067.4C4027.41 1078.7 4019.39 1089.58 4010.81 1100.03C4002.22 1110.48 3993.06 1120.5 3983.4 1130.01L4092.39 1257.33V1296.9H3954.99L3878.77 1203.87C3871.83 1207.16 3864.89 1210.31 3857.81 1213.17C3850.72 1216.11 3843.64 1218.9 3836.41 1221.47C3829.18 1223.98 3821.88 1226.34 3814.58 1228.56C3807.28 1230.71 3799.84 1232.71 3792.4 1234.5C3784.38 1236.22 3776.3 1237.72 3768.21 1239.01C3760.12 1240.3 3751.96 1241.3 3743.81 1242.16C3735.65 1243.02 3727.49 1243.66 3719.26 1244.02C3711.03 1244.45 3702.87 1244.59 3694.64 1244.59C3680.12 1244.66 3665.59 1244.02 3651.13 1242.66C3636.68 1241.3 3622.29 1239.29 3608.05 1236.5C3593.81 1233.78 3579.71 1230.28 3565.76 1226.13C3551.88 1221.98 3538.14 1217.11 3524.75 1211.67C3512.59 1206.73 3500.78 1201.22 3489.26 1195.07C3477.74 1188.84 3466.57 1182.11 3455.77 1174.74C3444.96 1167.37 3434.58 1159.5 3424.64 1150.98C3414.69 1142.54 3405.24 1133.52 3396.23 1124.07C3387.28 1114.49 3378.77 1104.39 3370.82 1093.95C3362.88 1083.43 3355.44 1072.62 3348.57 1061.38C3341.7 1050.15 3335.4 1038.55 3329.75 1026.75C3324.02 1014.87 3318.94 1002.7 3314.5 990.319C3309.56 976.794 3305.27 963.053 3301.55 949.098C3297.9 935.143 3294.82 921.044 3292.39 906.803C3289.96 892.633 3288.1 878.32 3286.95 863.935C3285.81 849.551 3285.31 835.166 3285.45 820.71C3285.31 806.182 3285.81 791.654 3286.95 777.198C3288.1 762.742 3289.89 748.357 3292.32 734.044C3294.75 719.731 3297.83 705.56 3301.55 691.461C3305.27 677.435 3309.56 663.623 3314.5 649.954C3319.01 637.501 3324.09 625.335 3329.82 613.455C3335.54 601.576 3341.91 589.982 3348.85 578.746C3355.72 567.511 3363.24 556.561 3371.25 546.113C3379.34 535.664 3387.85 525.573 3396.94 515.984C3405.96 506.537 3415.55 497.52 3425.5 489.075C3435.51 480.559 3445.89 472.615 3456.77 465.244C3467.57 457.873 3478.81 451.074 3490.33 444.919C3501.85 438.693 3513.73 433.111 3525.9 428.173C3539.14 422.806 3552.66 418.154 3566.4 414.146C3580.14 410.139 3594.03 406.775 3608.12 404.199C3622.15 401.551 3636.39 399.69 3650.63 398.474C3664.87 397.328 3679.19 396.828 3693.5 397.114C3707.88 396.899 3722.19 397.4 3736.51 398.617ZM3664.16 520.778C3654.78 521.637 3645.48 523.069 3636.25 525.001C3627.02 526.933 3617.93 529.366 3608.98 532.229C3600.04 535.163 3591.23 538.598 3582.65 542.463C3574.78 546.113 3567.12 550.192 3559.68 554.7C3552.3 559.137 3545.15 564.075 3538.28 569.371C3531.41 574.596 3524.82 580.321 3518.6 586.332C3512.3 592.344 3506.43 598.713 3500.92 605.369C3495.13 612.382 3489.76 619.61 3484.68 627.196C3479.67 634.71 3474.95 642.439 3470.65 650.455C3466.36 658.398 3462.42 666.557 3458.92 674.93C3455.41 683.303 3452.33 691.819 3449.61 700.479C3446.61 710.14 3444.03 719.874 3441.81 729.679C3439.59 739.555 3437.73 749.502 3436.3 759.45C3434.8 769.469 3433.73 779.488 3433.08 789.579C3432.37 799.598 3432.08 809.689 3432.22 819.779C3432.08 829.942 3432.44 840.175 3433.15 850.338C3433.8 860.428 3434.94 870.591 3436.45 880.61C3437.95 890.701 3439.88 900.72 3442.17 910.596C3444.53 920.543 3447.18 930.348 3450.33 940.081C3453.05 948.812 3456.27 957.399 3459.77 965.844C3463.35 974.217 3467.36 982.519 3471.65 990.606C3476.02 998.621 3480.74 1006.49 3485.82 1014.15C3490.83 1021.81 3496.27 1029.18 3502.07 1036.26C3507.58 1043.06 3513.45 1049.5 3519.67 1055.59C3525.9 1061.67 3532.48 1067.47 3539.35 1072.83C3546.22 1078.2 3553.38 1083.21 3560.82 1087.79C3568.26 1092.37 3575.92 1096.59 3583.79 1100.32C3592.38 1104.25 3601.11 1107.69 3610.06 1110.62C3619.07 1113.55 3628.16 1115.99 3637.39 1117.92C3646.55 1119.85 3655.93 1121.21 3665.3 1122.14C3674.68 1123 3684.05 1123.36 3693.5 1123.14C3702.94 1123.29 3712.32 1122.86 3721.69 1121.93C3731.07 1121 3740.37 1119.57 3749.6 1117.63C3758.76 1115.77 3767.92 1113.34 3776.87 1110.41C3785.81 1107.54 3794.62 1104.18 3803.2 1100.32C3811.08 1096.74 3818.73 1092.73 3826.1 1088.36C3833.55 1083.93 3840.7 1079.13 3847.57 1073.91C3854.44 1068.68 3861.03 1063.1 3867.25 1057.16C3873.48 1051.22 3879.42 1044.92 3884.93 1038.34C3890.8 1031.33 3896.23 1024.03 3901.39 1016.51C3906.47 1008.93 3911.19 1001.13 3915.56 993.11C3919.85 985.095 3923.86 976.865 3927.36 968.492C3930.87 960.047 3934.02 951.531 3936.67 942.8C3939.82 932.853 3942.54 922.833 3944.9 912.671C3947.26 902.509 3949.19 892.275 3950.69 882.041C3952.27 871.736 3953.34 861.359 3954.06 850.982C3954.77 840.605 3955.13 830.228 3954.99 819.779C3955.13 809.546 3954.77 799.312 3954.06 789.078C3953.34 778.844 3952.2 768.61 3950.69 758.52C3949.12 748.357 3947.19 738.267 3944.9 728.319C3942.54 718.3 3939.82 708.422 3936.67 698.618C3933.95 689.959 3930.8 681.442 3927.29 673.069C3923.71 664.768 3919.78 656.538 3915.41 648.594C3911.12 640.579 3906.4 632.85 3901.24 625.335C3896.16 617.821 3890.72 610.521 3884.93 603.508C3879.35 596.924 3873.41 590.626 3867.11 584.686C3860.81 578.746 3854.16 573.164 3847.29 567.94C3840.34 562.716 3833.19 557.849 3825.75 553.412C3818.3 548.975 3810.65 544.968 3802.7 541.318C3794.04 537.596 3785.24 534.233 3776.22 531.442C3767.21 528.579 3757.98 526.289 3748.74 524.428C3739.44 522.639 3730.07 521.279 3720.69 520.492C3711.25 519.705 3701.8 519.419 3692.35 519.633C3682.91 519.49 3673.53 519.848 3664.16 520.778ZM4681.63 1127.08C4694.16 1125.08 4706.47 1121.78 4718.27 1117.13C4730.15 1112.48 4741.46 1106.54 4751.98 1099.46C4762.5 1092.37 4772.23 1084.14 4781.03 1074.91C4813.52 1039.13 4829.77 984.093 4829.77 909.88V412.858H4972.46V914.46C4972.75 927.27 4972.46 940.081 4971.68 952.891C4970.82 965.701 4969.46 978.44 4967.52 991.107C4965.59 1003.77 4963.16 1016.37 4960.15 1028.82C4957.15 1041.27 4953.64 1053.65 4949.56 1065.82C4946.27 1075.48 4942.48 1085 4938.04 1094.3C4933.68 1103.54 4928.74 1112.55 4923.3 1121.28C4917.79 1129.94 4911.85 1138.32 4905.41 1146.33C4898.97 1154.35 4892.1 1161.93 4884.73 1169.09C4877.5 1175.96 4869.84 1182.4 4861.76 1188.41C4853.74 1194.35 4845.37 1199.79 4836.64 1204.8C4827.98 1209.74 4818.96 1214.18 4809.73 1218.11C4800.57 1221.98 4791.12 1225.34 4781.46 1228.13C4759.13 1234.29 4736.38 1238.94 4713.41 1242.01C4690.44 1245.16 4667.25 1246.74 4644.06 1246.74C4620.88 1246.74 4597.69 1245.16 4574.72 1242.01C4551.75 1238.94 4529.06 1234.29 4506.66 1228.13C4497.07 1225.34 4487.7 1221.98 4478.47 1218.11C4469.31 1214.18 4460.36 1209.74 4451.7 1204.8C4443.04 1199.79 4434.74 1194.35 4426.73 1188.34C4418.71 1182.4 4411.06 1175.96 4403.83 1169.09C4396.53 1161.93 4389.66 1154.28 4383.22 1146.26C4376.78 1138.32 4370.84 1129.94 4365.4 1121.21C4359.96 1112.55 4355.02 1103.54 4350.58 1094.3C4346.22 1085 4342.35 1075.48 4339.06 1065.82C4334.98 1053.65 4331.48 1041.27 4328.47 1028.82C4325.47 1016.37 4322.96 1003.77 4321.1 991.107C4319.17 978.44 4317.81 965.701 4316.95 952.891C4316.16 940.081 4315.88 927.27 4316.16 914.46V412.858H4459.29V909.88C4459.29 983.95 4475.6 1038.98 4508.31 1074.91C4516.9 1084 4526.49 1092.16 4536.86 1099.17C4547.24 1106.18 4558.4 1112.05 4570 1116.7C4581.66 1121.36 4593.83 1124.72 4606.13 1126.79C4618.51 1128.8 4631.11 1129.51 4643.63 1128.87C4656.3 1129.66 4669.04 1129.08 4681.63 1127.08ZM5115.37 1188.77L5405.06 413.788H5619.82L5906.35 1188.77V1227.63H5765.52L5683.51 994.9H5330.13L5247.26 1227.63H5114.44L5115.37 1188.77ZM5373.21 873.31H5642.72L5598.35 743.92C5580.89 693.394 5566.93 652.458 5556.2 620.254C5545.39 587.978 5536.23 560.569 5527.79 536.308H5492.72L5478.98 574.953C5474.4 587.764 5469.39 602.148 5463.67 617.964C5457.94 633.708 5451.79 652.029 5444.92 672.568C5438.05 693.179 5429.75 716.725 5419.94 743.92L5373.21 873.31ZM6706.42 1227.63H6569.02L6320.13 907.59H6228.53V1227.63H6087.48V412.858H6352.4C6362.35 412.858 6372.23 413.001 6382.17 413.359C6392.05 413.717 6402 414.218 6411.87 414.934C6421.75 415.649 6431.62 416.508 6441.5 417.581C6451.37 418.655 6461.25 419.872 6471.05 421.303C6480.14 422.663 6489.16 424.452 6498.03 426.813C6506.91 429.103 6515.64 431.966 6524.22 435.258C6532.81 438.55 6541.18 442.343 6549.27 446.565C6557.43 450.859 6565.3 455.511 6572.96 460.664C6637.36 503.03 6669.57 566.866 6669.57 652.244C6669.71 660.474 6669.5 668.704 6668.85 676.934C6668.28 685.164 6667.28 693.394 6665.85 701.481C6664.41 709.639 6662.63 717.656 6660.48 725.6C6658.33 733.615 6655.76 741.415 6652.89 749.145C6650.39 755.657 6647.6 762.026 6644.52 768.252C6641.44 774.479 6638.08 780.562 6634.43 786.502C6630.71 792.37 6626.77 798.095 6622.55 803.606C6618.33 809.188 6613.89 814.484 6609.1 819.565C6604.59 824.36 6599.87 828.94 6595 833.305C6590.06 837.742 6584.98 841.893 6579.68 845.829C6574.39 849.765 6568.95 853.487 6563.37 856.993C6557.79 860.428 6552.06 863.649 6546.12 866.655C6540.25 869.66 6534.24 872.523 6528.23 875.171C6522.15 877.819 6515.99 880.252 6509.77 882.542C6503.54 884.832 6497.24 886.908 6490.95 888.768C6484.58 890.701 6478.21 892.347 6471.7 893.849L6706.42 1188.77V1227.63ZM6228.1 785.07H6351.97C6363.14 785.643 6374.3 785.428 6385.46 784.498C6396.56 783.496 6407.65 781.778 6418.53 779.273C6429.4 776.769 6440.14 773.477 6450.51 769.469C6460.96 765.461 6471.12 760.738 6480.86 755.299C6488.8 750.075 6495.89 743.777 6502.11 736.621C6508.34 729.536 6513.63 721.592 6517.71 713.074C6521.86 704.486 6524.87 695.469 6526.59 686.166C6528.3 676.862 6528.8 667.344 6528.09 657.969C6529.02 648.594 6528.59 639.147 6526.87 629.915C6525.15 620.612 6522.15 611.666 6518 603.222C6513.78 594.848 6508.34 587.048 6501.97 580.178C6495.6 573.236 6488.23 567.224 6480.21 562.358C6470.34 557.491 6460.1 553.198 6449.66 549.548C6439.28 545.969 6428.62 543.035 6417.81 540.745C6407 538.455 6396.06 536.881 6385.03 535.95C6374.01 535.092 6362.99 534.877 6351.97 535.378H6228.1V785.07ZM6888.26 412.858H7416.81V537.668H7027.52V751.005H7388.83V873.525H7028.17V1102.1H7424.82V1227.63H6888.26V412.858ZM7740.84 993.754C7742.49 1003.2 7744.99 1012.5 7748.36 1021.45C7751.72 1030.47 7755.94 1039.13 7760.88 1047.29C7765.89 1055.52 7771.62 1063.24 7778.06 1070.33C7784.5 1077.49 7791.58 1084 7799.24 1089.79C7808.04 1095.88 7817.27 1101.17 7827 1105.75C7836.67 1110.33 7846.68 1114.06 7856.92 1116.99C7867.22 1119.92 7877.74 1122 7888.33 1123.22C7899 1124.5 7909.66 1124.79 7920.39 1124.29C7930.48 1124.93 7940.72 1124.72 7950.81 1123.57C7960.9 1122.43 7970.92 1120.35 7980.65 1117.49C7990.38 1114.56 7999.9 1110.84 8008.99 1106.25C8018.08 1101.67 8026.74 1096.31 8034.89 1090.22C8041.41 1084.79 8047.27 1078.7 8052.43 1071.9C8057.58 1065.18 8061.94 1057.81 8065.38 1050.08C8068.89 1042.35 8071.46 1034.26 8073.11 1025.89C8074.75 1017.59 8075.47 1009.14 8075.18 1000.62C8075.26 996.689 8075.11 992.681 8074.75 988.745C8074.32 984.809 8073.68 980.944 8072.75 977.08C8071.89 973.215 8070.75 969.422 8069.31 965.701C8067.88 961.98 8066.31 958.401 8064.38 954.894C8062.52 951.746 8060.51 948.668 8058.22 945.734C8056 942.8 8053.64 939.937 8051.14 937.29C8048.56 934.642 8045.84 932.137 8043.05 929.704C8040.19 927.342 8037.26 925.195 8034.18 923.12C8030.53 920.686 8026.74 918.396 8022.87 916.178C8019.08 914.031 8015.14 911.955 8011.13 910.023C8007.2 908.162 8003.12 906.373 7999.04 904.727C7994.89 903.081 7990.74 901.65 7986.52 900.29L7922.9 881.039L7861.5 864.15C7853.13 861.931 7844.75 859.498 7836.45 856.922C7828.15 854.274 7819.92 851.483 7811.76 848.477C7803.6 845.471 7795.52 842.322 7787.5 838.959C7779.49 835.524 7771.54 832.017 7763.74 828.224C7757.02 825.075 7750.36 821.64 7743.92 817.99C7737.41 814.34 7731.11 810.404 7724.88 806.325C7718.73 802.174 7712.72 797.809 7706.85 793.229C7700.98 788.648 7695.26 783.854 7689.75 778.844C7684.88 774.335 7680.16 769.541 7675.79 764.459C7671.36 759.45 7667.28 754.154 7663.41 748.715C7659.55 743.276 7656.04 737.551 7652.75 731.754C7649.53 725.886 7646.6 719.874 7643.95 713.718C7638.29 699.405 7634.14 684.52 7631.42 669.276C7628.78 654.104 7627.63 638.718 7627.99 623.331C7628.42 607.873 7630.35 592.558 7633.79 577.53C7637.22 562.501 7642.16 547.83 7648.53 533.803C7651.89 526.647 7655.68 519.777 7659.76 513.049C7663.91 506.322 7668.42 499.881 7673.29 493.727C7678.15 487.501 7683.38 481.632 7688.96 475.979C7694.47 470.397 7700.34 465.101 7706.49 460.163C7713.29 454.795 7720.3 449.714 7727.53 444.919C7734.83 440.196 7742.27 435.759 7750 431.751C7757.66 427.672 7765.53 424.022 7773.55 420.73C7781.56 417.367 7789.79 414.504 7798.09 411.928C7807.83 408.85 7817.63 406.203 7827.58 403.912C7837.52 401.622 7847.54 399.762 7857.56 398.259C7867.65 396.828 7877.81 395.754 7887.98 395.11C7898.14 394.466 7908.37 394.18 7918.53 394.323C8002.62 394.323 8069.39 414.146 8118.69 453.793C8130.79 463.598 8141.95 474.547 8151.9 486.499C8161.85 498.45 8170.58 511.403 8178.02 525.144C8185.39 538.813 8191.4 553.198 8195.91 568.155C8200.49 583.04 8203.5 598.355 8205 613.813L8067.6 625.049C8065.95 617.248 8063.66 609.591 8060.66 602.22C8057.65 594.849 8054.07 587.763 8049.85 581.036C8045.63 574.238 8040.83 567.868 8035.54 562C8030.24 556.06 8024.37 550.621 8018.15 545.683C8010.49 540.602 8002.48 536.093 7994.1 532.3C7985.73 528.508 7977 525.359 7968.13 522.925C7959.25 520.564 7950.24 518.846 7941.08 517.916C7931.92 516.985 7922.68 516.771 7913.52 517.343C7904.86 516.842 7896.13 517.057 7887.55 518.059C7878.89 519.061 7870.37 520.778 7862.07 523.212C7853.77 525.645 7845.68 528.865 7837.88 532.658C7830.15 536.523 7822.71 541.031 7815.7 546.184C7810.12 550.55 7805.04 555.559 7800.6 561.141C7796.16 566.652 7792.37 572.735 7789.36 579.176C7786.36 585.617 7784.07 592.344 7782.64 599.286C7781.13 606.227 7780.49 613.312 7780.7 620.469C7780.49 624.262 7780.63 627.983 7780.99 631.776C7781.35 635.569 7781.92 639.29 7782.78 642.94C7783.64 646.662 7784.71 650.24 7786.07 653.818C7787.36 657.325 7788.93 660.76 7790.72 664.124C7792.58 667.201 7794.59 670.135 7796.73 672.998C7798.95 675.86 7801.24 678.58 7803.75 681.156C7806.25 683.732 7808.9 686.166 7811.62 688.384C7814.41 690.674 7817.27 692.821 7820.28 694.754C7824 697.115 7827.72 699.405 7831.51 701.552C7835.31 703.699 7839.24 705.775 7843.18 707.635C7847.11 709.568 7851.12 711.357 7855.13 713.003C7859.21 714.649 7863.29 716.224 7867.44 717.584C7886.04 724.454 7907.08 731.754 7930.7 739.34L7988.59 757.375C8024.95 768.825 8057.72 780.705 8086.85 793.086C8093.58 795.877 8100.16 799.025 8106.67 802.389C8113.18 805.681 8119.55 809.331 8125.78 813.124C8132 816.988 8138.09 820.996 8144.03 825.29C8149.89 829.584 8155.69 834.092 8161.27 838.744C8166.28 843.038 8171.08 847.547 8175.58 852.342C8180.09 857.065 8184.39 862.146 8188.32 867.37C8192.33 872.595 8195.98 878.034 8199.34 883.687C8202.71 889.341 8205.71 895.209 8208.43 901.149C8211.37 908.234 8213.94 915.462 8216.09 922.833C8218.31 930.133 8220.1 937.576 8221.46 945.09C8222.82 952.676 8223.82 960.262 8224.39 967.848C8224.96 975.505 8225.18 983.163 8224.96 990.82C8225.03 999.766 8224.61 1008.64 8223.68 1017.59C8222.75 1026.46 8221.31 1035.26 8219.45 1043.99C8217.52 1052.72 8215.09 1061.31 8212.15 1069.76C8209.29 1078.27 8205.86 1086.5 8202.06 1094.59C8198.34 1102.32 8194.19 1109.9 8189.68 1117.2C8185.1 1124.5 8180.17 1131.52 8174.8 1138.24C8169.43 1144.97 8163.71 1151.41 8157.62 1157.42C8151.54 1163.51 8145.1 1169.23 8138.37 1174.6C8131.15 1180.25 8123.63 1185.62 8115.9 1190.56C8108.17 1195.57 8100.23 1200.15 8092.07 1204.44C8083.91 1208.66 8075.54 1212.6 8067.03 1216.04C8058.51 1219.54 8049.85 1222.62 8041.05 1225.34C8030.96 1228.49 8020.8 1231.21 8010.56 1233.5C8000.26 1235.86 7989.88 1237.79 7979.5 1239.29C7969.06 1240.8 7958.54 1241.87 7948.09 1242.59C7937.57 1243.3 7926.98 1243.52 7916.46 1243.45C7897.99 1244.09 7879.46 1243.37 7861.07 1241.16C7842.75 1238.94 7824.57 1235.36 7806.75 1230.35C7788.93 1225.34 7771.54 1218.97 7754.73 1211.31C7737.91 1203.58 7721.66 1194.64 7706.28 1184.4C7691.89 1174.03 7678.66 1162.15 7666.7 1148.98C7654.75 1135.81 7644.31 1121.43 7635.36 1106.11C7626.41 1090.8 7619.04 1074.55 7613.46 1057.73C7607.88 1040.92 7604.02 1023.53 7602.08 1005.92L7740.84 993.754ZM8428.27 412.858H8725.97C8737.78 412.572 8749.52 412.715 8761.25 413.431C8773.06 414.075 8784.72 415.22 8796.39 416.866C8808.05 418.512 8819.65 420.587 8831.1 423.164C8842.62 425.74 8854 428.817 8865.23 432.324C8873.75 434.9 8882.12 438.049 8890.28 441.627C8898.44 445.206 8906.38 449.213 8914.11 453.722C8921.77 458.159 8929.21 463.097 8936.37 468.393C8943.52 473.76 8950.32 479.485 8956.83 485.568C8962.49 491.079 8967.85 496.947 8972.86 503.173C8977.87 509.328 8982.45 515.84 8986.67 522.568C8990.83 529.295 8994.62 536.237 8997.98 543.465C9001.34 550.621 9004.28 558.064 9006.71 565.578C9009.36 573.594 9011.65 581.68 9013.58 589.839C9015.59 597.997 9017.16 606.227 9018.45 614.6C9019.74 622.902 9020.74 631.204 9021.31 639.577C9021.88 648.021 9022.17 656.395 9022.1 664.768C9022.31 674.286 9022.03 683.732 9021.31 693.179C9020.52 702.554 9019.24 711.929 9017.45 721.234C9015.66 730.538 9013.44 739.698 9010.65 748.787C9007.93 757.804 9004.71 766.75 9000.99 775.481C8997.7 783.066 8993.9 790.438 8989.61 797.594C8985.39 804.679 8980.66 811.549 8975.58 818.133C8970.43 824.646 8964.92 830.872 8959.05 836.74C8953.18 842.609 8946.89 848.119 8940.3 853.2C8933.15 858.496 8925.63 863.506 8917.98 868.086C8910.25 872.666 8902.37 876.888 8894.22 880.753C8886.13 884.618 8877.83 888.053 8869.38 891.058C8860.94 894.064 8852.42 896.712 8843.69 898.931C8833.25 901.578 8822.65 903.94 8812.06 905.872C8801.4 907.876 8790.74 909.522 8779.93 910.81C8769.2 912.099 8758.46 913.029 8747.66 913.601C8736.85 914.174 8726.04 914.389 8715.24 914.246H8570.97V1227.63H8428.77L8428.27 412.858ZM8570.47 791.941H8706.72C8712.52 791.941 8718.24 791.869 8724.04 791.583C8729.77 791.368 8735.49 791.01 8741.29 790.509C8747.01 790.008 8752.74 789.293 8758.39 788.505C8764.12 787.718 8769.77 786.788 8775.42 785.714C8780.29 784.856 8785.01 783.711 8789.73 782.422C8794.46 781.063 8799.11 779.56 8803.62 777.771C8808.2 776.053 8812.71 774.121 8817.07 771.974C8821.51 769.827 8825.8 767.465 8829.95 764.96C8833.82 762.527 8837.47 759.879 8840.97 757.017C8844.41 754.154 8847.7 751.005 8850.78 747.713C8853.86 744.35 8856.72 740.843 8859.29 737.193C8861.94 733.472 8864.3 729.607 8866.38 725.6C8868.67 720.876 8870.67 716.081 8872.39 711.142C8874.11 706.132 8875.47 701.123 8876.61 695.97C8877.69 690.889 8878.47 685.665 8878.97 680.512C8879.4 675.288 8879.55 670.064 8879.4 664.768C8879.62 659.472 8879.4 654.105 8878.97 648.737C8878.47 643.37 8877.69 638.074 8876.61 632.85C8875.54 627.554 8874.11 622.401 8872.39 617.32C8870.67 612.239 8868.67 607.229 8866.38 602.363C8864.3 598.355 8862.01 594.419 8859.51 590.698C8856.93 586.905 8854.14 583.326 8851.06 579.963C8848.06 576.599 8844.77 573.45 8841.33 570.516C8837.9 567.511 8834.25 564.863 8830.38 562.358C8826.3 559.853 8822.08 557.491 8817.72 555.344C8813.42 553.198 8808.98 551.194 8804.48 549.476C8799.97 547.687 8795.39 546.184 8790.74 544.896C8786.09 543.536 8781.36 542.463 8776.57 541.604C8770.91 540.53 8765.26 539.529 8759.54 538.741C8753.88 537.954 8748.16 537.31 8742.43 536.809C8736.64 536.308 8730.91 535.879 8725.19 535.664C8719.39 535.449 8713.66 535.378 8707.87 535.378H8569.32L8570.47 791.941ZM9061.46 1188.77L9351.36 413.788H9566.19L9852.44 1188.77V1227.63H9712.75L9631.02 994.9H9276.29L9194.49 1227.63H9061.46V1188.77ZM9319.58 873.31H9588.87L9544.43 743.92C9527.04 693.394 9513.09 652.458 9502.5 620.254L9474.16 536.308H9437.95L9424.21 574.953C9419.63 587.764 9414.62 602.148 9408.89 617.964C9403.17 633.708 9396.94 652.029 9390.07 672.568C9383.2 693.179 9374.97 716.725 9365.1 743.92L9319.58 873.31ZM10718.5 1012.08C10715.3 1020.02 10711.8 1027.89 10708.1 1035.62C10704.3 1043.35 10700.4 1051.01 10696.2 1058.45C10691.9 1065.96 10687.5 1073.33 10682.8 1080.49C10678.1 1087.72 10673.3 1094.8 10668.1 1101.67C10662.8 1108.76 10657.2 1115.63 10651.4 1122.21C10645.6 1128.87 10639.5 1135.24 10633.1 1141.47C10626.7 1147.62 10620.2 1153.49 10613.4 1159.14C10606.6 1164.8 10599.6 1170.16 10592.3 1175.32C10584.5 1180.75 10576.4 1185.98 10568.2 1190.77C10560 1195.64 10551.5 1200.15 10542.9 1204.3C10534.4 1208.52 10525.6 1212.31 10516.6 1215.82C10507.7 1219.26 10498.6 1222.41 10489.5 1225.12C10479 1228.27 10468.4 1230.99 10457.6 1233.35C10446.9 1235.72 10436 1237.65 10425.2 1239.15C10414.3 1240.73 10403.3 1241.8 10392.4 1242.52C10381.4 1243.23 10370.4 1243.52 10359.5 1243.45C10345.3 1243.66 10331.1 1243.09 10317 1241.87C10302.9 1240.65 10288.8 1238.72 10274.9 1236C10261 1233.35 10247.2 1229.99 10233.7 1225.91C10220.1 1221.83 10206.7 1217.11 10193.6 1211.67C10181.7 1206.66 10170 1201.01 10158.6 1194.85C10147.2 1188.63 10136.1 1181.83 10125.4 1174.46C10114.8 1167.09 10104.6 1159.14 10094.7 1150.7C10084.9 1142.25 10075.4 1133.31 10066.6 1123.86C10057.6 1114.2 10049.2 1104.11 10041.2 1093.59C10033.3 1083.14 10025.9 1072.19 10019.1 1060.95C10012.3 1049.72 10006 1038.12 10000.4 1026.32C9994.7 1014.44 9989.69 1002.27 9985.26 989.89C9980.39 976.436 9976.17 962.695 9972.52 948.883C9968.87 934.999 9965.86 921.044 9963.5 906.874C9961.07 892.776 9959.28 878.606 9958.14 864.293C9956.99 850.051 9956.49 835.738 9956.63 821.425C9956.49 807.112 9956.99 792.799 9958.14 778.486C9959.28 764.245 9961.07 750.003 9963.43 735.905C9965.86 721.807 9968.87 707.778 9972.52 693.895C9976.17 680.083 9980.39 666.414 9985.26 652.888C9989.69 640.507 9994.78 628.269 10000.4 616.39C10006.1 604.438 10012.4 592.845 10019.2 581.537C10026.1 570.23 10033.6 559.352 10041.5 548.76C10049.5 538.24 10058 528.15 10067 518.488C10076 508.97 10085.4 499.881 10095.3 491.365C10105.2 482.777 10115.5 474.762 10126.2 467.248C10137 459.805 10148.1 452.863 10159.5 446.494C10171 440.196 10182.8 434.471 10194.8 429.318C10207.9 423.808 10221.3 419.013 10234.9 414.862C10248.5 410.711 10262.4 407.276 10276.4 404.628C10290.3 401.909 10304.4 399.905 10318.6 398.688C10332.8 397.4 10347 396.899 10361.2 397.114C10381 396.398 10400.7 397.185 10420.4 399.547C10439.9 401.837 10459.3 405.702 10478.3 410.926C10497.4 416.222 10515.9 422.949 10533.9 431.107C10551.9 439.266 10569.2 448.712 10585.7 459.519C10600.3 469.466 10614.2 480.63 10627.2 492.796C10640.1 504.891 10652 518.059 10662.9 532.086C10673.8 546.113 10683.4 560.998 10691.9 576.528C10700.5 592.129 10707.8 608.303 10713.7 625.049L10569.2 653.389C10564.8 643.513 10559.6 633.995 10553.8 624.834C10548.1 615.746 10541.7 606.943 10534.7 598.713C10527.8 590.411 10520.3 582.611 10512.2 575.383C10504.2 568.083 10495.7 561.428 10486.8 555.273C10477.3 549.19 10467.4 543.822 10457.2 539.242C10447 534.591 10436.4 530.798 10425.6 527.792C10414.8 524.715 10403.8 522.568 10392.6 521.208C10381.4 519.848 10370.2 519.276 10359 519.633C10349.7 519.419 10340.5 519.777 10331.3 520.635C10322.1 521.494 10313 522.925 10303.9 524.786C10294.9 526.718 10286 529.152 10277.2 532.157C10268.5 535.092 10259.9 538.527 10251.6 542.463C10243.9 546.256 10236.4 550.478 10229.2 555.058C10222 559.638 10215 564.648 10208.3 570.015C10201.7 575.311 10195.2 581.036 10189.2 587.119C10183.1 593.202 10177.5 599.572 10172.1 606.299C10166.5 613.384 10161.2 620.827 10156.4 628.484C10151.4 636.07 10146.9 643.942 10142.8 652.029C10138.6 660.116 10134.8 668.346 10131.5 676.791C10128.2 685.235 10125.2 693.823 10122.7 702.554C10119.7 712.144 10117.2 721.807 10115 731.611C10112.9 741.416 10111 751.291 10109.6 761.167C10108.1 771.115 10107.1 781.134 10106.4 791.082C10105.7 801.101 10105.4 811.12 10105.5 821.139C10105.4 831.23 10105.7 841.392 10106.4 851.411C10107.1 861.502 10108.2 871.521 10109.6 881.54C10111.1 891.488 10113 901.435 10115.2 911.24C10117.5 921.116 10120.1 930.849 10123.1 940.51C10125.8 949.098 10128.9 957.614 10132.4 965.987C10135.9 974.289 10139.8 982.447 10144.1 990.391C10148.3 998.335 10153 1006.06 10158.1 1013.58C10163.1 1021.09 10168.5 1028.39 10174.2 1035.41C10179.8 1041.92 10185.7 1048.22 10191.9 1054.08C10198.2 1060.02 10204.8 1065.61 10211.7 1070.83C10218.6 1076.05 10225.7 1080.85 10233.1 1085.29C10240.4 1089.72 10248.1 1093.73 10255.9 1097.31C10264.5 1101.25 10273.2 1104.68 10282.1 1107.61C10291 1110.55 10300.1 1112.98 10309.3 1114.91C10318.5 1116.78 10327.8 1118.21 10337.1 1119.07C10346.4 1120 10355.8 1120.35 10365.2 1120.21C10376.8 1120.64 10388.4 1120.21 10399.9 1118.78C10411.4 1117.35 10422.9 1114.99 10434 1111.69C10445.1 1108.4 10455.9 1104.25 10466.4 1099.17C10476.9 1094.16 10486.9 1088.22 10496.4 1081.57C10504.8 1075.41 10512.8 1068.75 10520.5 1061.67C10528.1 1054.58 10535.3 1047.07 10542 1039.2C10548.7 1031.25 10555 1022.95 10560.8 1014.29C10566.6 1005.63 10571.9 996.617 10576.5 987.385L10718.5 1012.08ZM10910.6 412.858H11439.2V537.668H11049.9V751.005H11411.9V873.525H11050.5V1102.1H11447.2V1227.63H10910.6V412.858Z" fill="#A8AFAF"/>
</svg>
