<svg width="2501" height="617" viewBox="0 0 2501 617" fill="none" xmlns="http://www.w3.org/2000/svg">
<g clip-path="url(#clip0_226_664)">
<path d="M269.264 10.0445C236.923 13.6689 188.412 28.7241 160.81 43.7793C86.6495 83.6477 36.4655 145.82 11.3735 228.624C6.35512 244.794 0.500319 288.845 0.779119 309.476C0.779119 327.598 6.35512 371.927 9.70072 382.521C11.3735 387.54 14.9979 399.528 18.0647 408.729C23.0831 424.341 47.3387 473.41 51.5207 476.756C52.3571 477.592 56.8179 483.168 60.9999 489.581C71.3155 504.915 98.3591 532.237 118.712 547.85C134.324 559.838 178.375 585.209 183.951 585.488C185.345 585.488 185.624 574.893 184.787 560.953C182.836 530.007 188.69 487.908 201.236 444.973C203.467 437.724 205.14 428.245 205.14 424.063C205.14 419.881 206.255 415.42 207.649 414.026C209.043 412.353 211.552 404.268 212.946 395.904C214.619 387.54 217.407 374.715 219.358 367.466C222.146 356.593 221.868 352.411 217.964 340.701C212.388 322.858 212.11 293.863 217.686 279.923C230.789 246.746 245.287 234.2 269.821 234.2C299.374 234.2 313.593 256.504 308.017 293.863C305.508 310.87 298.538 337.635 294.077 345.999C292.962 348.508 291.01 355.478 290.174 361.333C289.058 367.466 286.828 376.109 285.434 380.849C281.531 391.722 289.058 412.911 299.095 420.996C308.574 428.523 328.369 430.754 346.491 426.572C359.316 423.784 364.613 420.438 377.996 407.613C393.887 392.001 405.876 373.879 405.876 365.236C405.876 362.727 407.27 359.381 408.942 357.708C416.749 349.902 420.931 289.123 415.076 263.474C408.664 235.315 388.869 207.714 363.219 191.543C337.57 175.094 284.598 170.355 251.978 181.507C229.116 189.313 208.764 202.417 195.66 217.751C183.951 231.412 171.684 253.716 171.684 261.522C171.684 264.31 170.29 267.935 168.617 269.607C166.944 271.28 164.992 281.875 164.156 293.305C162.762 310.312 163.877 318.119 168.896 334.847C172.241 346.277 178.375 359.66 181.999 364.678C189.527 374.715 189.527 378.618 182.557 405.383C180.605 412.632 177.26 419.323 175.308 420.159C157.744 426.851 122.057 384.752 110.069 342.932C105.608 327.04 105.329 270.444 109.79 253.716C111.742 246.746 115.087 237.267 117.318 232.248C119.548 227.509 121.5 222.769 121.5 221.654C121.5 220.539 127.076 211.059 134.046 200.744C170.29 146.099 229.116 117.104 303.556 117.104C320.563 117.104 338.127 118.219 342.867 119.613C381.341 131.601 391.657 135.505 406.712 144.426C435.986 161.991 457.175 185.967 478.364 226.115C479.758 228.624 481.709 235.315 482.546 240.891C483.661 246.467 485.612 251.764 487.006 252.601C488.4 253.437 489.516 271.559 489.516 293.027C489.516 331.78 486.728 347.393 475.018 379.176C461.914 414.026 428.18 452.5 397.512 467.555C379.947 475.919 347.049 485.12 333.945 485.12C316.381 485.12 281.81 470.622 272.33 458.913C267.87 453.615 263.688 455.567 263.688 463.095C263.688 465.883 262.572 470.622 260.9 473.41C259.506 475.919 256.996 483.726 255.602 490.696C247.517 527.497 236.086 557.329 218.522 585.209C213.225 593.852 217.686 598.87 232.183 600.822C239.432 601.937 249.19 603.889 253.651 605.283C264.803 608.907 325.302 608.349 345.655 604.725C364.056 601.379 393.887 593.015 407.27 587.439C491.467 552.868 555.312 482.611 582.914 393.116C597.69 345.441 598.526 289.96 585.144 234.2C580.683 216.078 579.289 211.896 567.301 184.016C550.015 143.311 510.983 95.6361 471.394 66.3621C437.38 41.2701 403.924 26.7725 351.788 14.2265C337.291 10.8809 285.713 8.09289 269.264 10.0445ZM1012.82 110.691C1001.95 112.364 984.664 130.207 980.204 144.147C975.464 159.481 980.204 175.93 993.586 188.755C1023.14 217.472 1074.44 190.428 1068.03 149.166C1064.12 122.959 1040.15 106.231 1012.82 110.691ZM708.931 127.141C706.422 129.929 706.422 466.161 709.21 470.065C710.604 472.295 722.592 473.131 746.012 472.853L780.862 472.574L782.256 415.977C783.371 369.975 784.486 358.823 787.832 356.872C790.062 355.478 809.02 354.084 829.93 354.084C875.654 354.084 894.891 350.738 915.801 339.586C943.123 324.81 959.015 303.621 967.658 269.886C972.955 248.697 972.955 233.363 967.379 211.617C962.36 192.101 960.13 187.361 948.142 171.47C933.365 151.675 918.31 140.802 893.776 132.159C880.114 127.698 868.684 126.862 794.802 126.025C748.8 125.468 710.046 126.025 708.931 127.141ZM861.992 196.562C880.672 202.417 889.872 210.781 894.054 225.836C899.352 245.631 895.448 264.031 883.739 275.183C870.914 287.172 859.483 289.96 822.124 289.96C797.59 289.96 790.062 289.123 786.716 285.499C783.092 282.153 782.256 274.068 782.256 242.285C782.256 192.101 781.977 192.38 820.73 192.38C837.458 192.38 853.628 194.053 861.992 196.562ZM1351.01 180.113C1351.01 199.35 1349.61 217.472 1348.22 220.539C1346.27 224.163 1342.36 225.836 1335.67 225.836C1330.66 225.836 1325.92 226.951 1325.36 228.624C1325.08 230.018 1325.08 239.776 1325.92 250.091C1327.31 268.492 1327.59 268.771 1335.95 270.723C1340.69 271.559 1345.99 273.232 1347.66 274.347C1350.17 275.741 1351.01 297.766 1351.01 353.526C1351.01 428.523 1351.29 431.311 1357.42 442.463C1370.24 466.161 1390.32 474.525 1431.02 473.41L1458.35 472.574L1459.18 445.53L1460.02 418.208H1453.05C1442.45 418.208 1426.84 409.844 1425.17 403.153C1424.33 399.807 1423.5 370.254 1423.5 337.077C1423.5 291.354 1424.33 276.02 1427.12 273.789C1429.07 272.117 1436.88 270.444 1444.41 269.886L1458.35 269.05V227.23L1443.01 226.393C1434.65 225.836 1426.84 223.884 1425.73 222.211C1424.61 220.26 1423.5 202.138 1423.5 181.785V144.984H1351.01V180.113ZM2387.31 146.657C2386.19 147.772 2385.36 165.336 2385.36 185.689C2385.36 225.278 2385.08 225.836 2369.74 225.836C2362.77 225.836 2362.77 226.115 2363.61 247.303C2364.45 268.492 2364.72 269.05 2371.97 269.886C2375.88 270.444 2380.62 272.395 2382.01 274.068C2383.68 276.02 2385.36 309.755 2386.19 352.69C2387.03 393.952 2388.42 431.59 2389.54 436.051C2392.88 448.318 2410.17 463.931 2426.62 469.228C2445.02 475.362 2491.86 475.919 2496.6 470.065C2498.83 467.555 2499.66 457.519 2499.11 443.021L2498.27 419.602L2488.51 417.929C2477.92 416.256 2465.93 410.68 2462.86 405.941C2461.75 404.268 2460.63 373.879 2460.63 338.471C2460.63 265.704 2458.96 270.444 2483.21 270.444C2499.11 270.444 2500.5 267.656 2499.11 242.285L2498.27 227.23L2480.15 225.836L2462.03 224.442L2460.63 185.41L2459.24 146.378L2424.11 145.541C2404.87 145.263 2388.42 145.82 2387.31 146.657ZM1213 219.145C1199.34 222.769 1183.45 231.969 1172.85 242.843C1160.03 256.225 1156.68 255.389 1155.29 238.382L1154.45 227.23H1084.75V472.574L1119.88 473.131C1154.45 473.968 1155.29 473.689 1156.96 467.555C1157.8 464.21 1158.64 428.802 1158.64 388.655C1158.64 309.197 1158.91 306.967 1175.36 291.354C1182.61 284.384 1186.52 282.99 1202.13 282.153L1220.25 281.038L1231.12 292.469C1243.95 305.851 1242.55 293.027 1243.67 408.45C1243.95 439.118 1244.23 466.161 1244.51 468.949C1245.06 472.853 1249.52 473.41 1280.75 472.853L1316.16 472.574V276.856L1308.07 260.965C1294.13 233.363 1272.66 220.26 1239.77 218.587C1228.06 218.308 1216.07 218.308 1213 219.145ZM1561.5 219.145C1531.39 227.23 1516.89 235.315 1498.21 253.716C1473.12 279.087 1461.69 308.639 1461.69 348.508C1461.97 418.487 1505.74 470.343 1570.42 476.477C1625.63 481.774 1668.28 465.604 1695.6 429.081C1699.51 423.784 1707.87 406.777 1707.87 403.71C1707.87 402.595 1691.7 401.48 1672.19 401.48H1636.5L1628.14 410.123C1618.38 420.159 1604.72 426.572 1592.17 426.572C1579.62 426.572 1560.39 417.65 1551.47 408.171C1544.77 400.643 1535.02 378.897 1535.02 371.369C1535.02 368.86 1555.37 368.024 1620.89 368.024C1668 368.024 1707.87 366.909 1709.82 365.793C1714.01 363.005 1710.1 318.676 1703.97 302.506C1691.42 268.771 1667.72 240.333 1643.75 230.297C1636.78 227.509 1628.69 223.884 1625.9 222.49C1620.05 219.423 1570.42 216.914 1561.5 219.145ZM1615.87 280.202C1626.74 287.729 1636.22 305.573 1634.83 315.609C1633.99 322.022 1633.43 322.022 1586.32 322.858C1531.95 323.695 1531.67 323.416 1540.31 303.342C1546.45 289.402 1558.71 276.856 1570.14 273.232C1583.25 269.05 1604.44 272.395 1615.87 280.202ZM1974.13 219.145C1941.79 227.787 1919.2 242.006 1901.64 264.031C1894.67 272.953 1889.09 281.317 1889.09 282.99C1889.09 284.384 1887.14 289.402 1884.63 294.142C1882.12 298.603 1878.5 312.543 1876.55 325.089C1866.79 384.752 1893.55 440.512 1943.74 465.604L1962.97 475.362H2003.4C2045.22 475.362 2048.84 474.525 2074.49 460.864C2093.17 450.827 2123.84 411.795 2119.1 403.989C2117.99 402.595 2102.1 401.48 2083.42 401.48H2049.12L2042.15 409.565C2014.27 441.069 1962.14 424.899 1950.99 381.127C1949.31 375.273 1949.31 370.254 1950.71 369.139C1952.1 368.303 1991.97 367.745 2039.64 368.024C2107.67 368.024 2126.07 367.466 2126.35 364.678C2128.86 329.828 2112.13 278.25 2091.22 255.946C2079.51 243.4 2059.16 229.46 2049.12 226.951C2044.66 225.836 2039.64 223.884 2037.69 222.49C2033.79 219.423 1982.77 216.914 1974.13 219.145ZM2017.62 273.511C2030.16 277.971 2044.66 293.584 2046.89 305.573C2050.24 323.695 2050.52 323.695 1998.66 322.858C1952.1 322.022 1951.82 322.022 1950.99 315.609C1949.87 307.803 1959.63 288.566 1967.99 281.317C1979.98 271.28 2000.89 267.935 2017.62 273.511ZM2216.68 219.145C2159.53 232.806 2138.9 253.158 2138.62 295.536C2138.62 341.259 2161.48 360.496 2229.23 372.485C2275.79 380.57 2289.17 387.819 2288.61 405.383C2288.33 417.929 2279.69 426.014 2262.41 429.639C2240.66 434.378 2223.65 429.081 2209.99 413.747L2199.12 401.48H2165.38C2138.06 401.48 2131.65 402.316 2131.65 405.383C2131.65 413.468 2142.8 434.657 2152 445.251C2160.64 454.452 2167.33 458.913 2193.54 471.459C2196.05 472.853 2209.71 475.083 2223.37 476.756C2248.74 479.823 2292.79 477.035 2303.95 471.459C2306.46 470.343 2313.7 466.719 2319.84 463.931C2335.73 456.403 2350.78 439.397 2356.36 423.226C2362.49 404.825 2360.82 379.176 2352.18 361.333C2341.86 340.423 2314.54 325.367 2273.84 318.119C2221.42 308.918 2220.59 308.639 2212.22 300.554C2202.18 290.239 2202.18 286.614 2212.22 275.462C2220.31 266.541 2220.86 266.262 2243.17 266.262C2265.47 266.262 2266.03 266.541 2274.11 275.462C2278.58 280.481 2282.2 286.335 2282.2 288.566C2282.2 291.911 2288.05 292.748 2317.05 292.748C2355.52 292.748 2354.41 293.584 2347.72 273.789C2335.45 238.661 2303.95 220.817 2251.53 218.866C2235.36 218.308 2219.75 218.308 2216.68 219.145ZM1845.88 224.999C1833.61 229.181 1816.6 243.121 1811.31 253.158C1806.01 263.195 1801.27 259.013 1799.88 242.285L1798.48 227.23H1728.78L1727.95 344.326C1727.67 408.729 1727.95 464.21 1728.78 467.834C1730.18 473.968 1731.01 473.968 1764.47 473.41C1783.71 473.131 1799.32 471.459 1800.43 469.786C1801.55 468.392 1802.66 438.839 1802.66 404.268C1802.66 349.623 1803.22 339.865 1807.96 327.598C1817.72 302.227 1838.63 287.172 1864.84 287.172C1872.08 287.172 1875.15 285.778 1875.99 282.153C1877.94 274.068 1878.22 236.43 1876.55 228.066C1874.87 221.375 1873.48 220.26 1865.95 220.539C1860.93 220.817 1852.01 222.769 1845.88 224.999ZM987.174 229.181C986.337 231.133 986.058 286.057 986.337 351.296L987.174 469.786L1020.35 471.18C1040.42 472.016 1054.92 471.459 1057.15 469.786C1060.22 467.555 1061.06 443.857 1061.06 349.065C1061.33 284.384 1060.5 230.018 1059.66 228.624C1056.87 224.442 988.568 224.999 987.174 229.181Z" fill="#A8AFAF"/>
</g>
<defs>
<clipPath id="clip0_226_664">
<rect width="2500" height="617" fill="white" transform="translate(0.5)"/>
</clipPath>
</defs>
</svg>
