<svg width="219" height="64" viewBox="0 0 219 64" fill="none" xmlns="http://www.w3.org/2000/svg">
<path d="M52.834 43.4296L54.1867 43.1511C55.3802 42.8328 55.6985 42.6737 55.6985 40.2866V21.5479C55.6985 19.1608 55.3404 18.9619 54.1867 18.6834L52.834 18.4049V17.2909H74.3974L74.7953 25.2081H73.5619C72.5673 23.0199 71.9308 21.8662 71.334 20.9909C70.0609 19.1608 69.2254 19.0016 66.4802 19.0016C64.4512 19.0016 63.4566 19.2404 62.8598 19.3995V29.5447H63.934C66.7189 29.5447 67.3555 29.2264 67.8329 28.3511C68.3899 27.3565 68.7082 26.6006 69.0662 25.3275H70.2598V35.592H69.0662C68.7082 34.3586 68.3899 33.5629 67.8329 32.4092C67.3555 31.4145 66.8383 31.2156 63.934 31.2156H62.8598V38.8543C62.8598 42.3952 62.9791 42.793 66.8383 42.793C70.0211 42.793 70.6576 42.3952 71.9705 40.4457C72.6867 39.3715 73.4426 37.7006 74.477 35.1941H75.7501L75.1931 44.5436H52.8738L52.834 43.4296ZM79.0921 28.5102C78.177 26.2823 77.7394 25.7253 76.7447 25.407L75.9888 25.1683V24.1339H87.805V25.1683L86.7308 25.4468C85.8953 25.6855 85.4974 26.0834 85.4974 27.0382C85.4974 27.5952 85.6964 28.2715 86.0146 29.1468L89.3168 38.2178H89.5157L92.6985 29.1468C93.0566 28.192 93.2157 27.5156 93.2157 26.9586C93.2157 26.0834 92.8179 25.6457 91.9824 25.4468L90.9082 25.1683V24.1339H98.1888V25.1683L97.4329 25.407C96.3985 25.7651 95.9609 26.3619 95.006 28.9479L88.9189 44.5436H85.577L79.0921 28.5102ZM97.2738 34.2393C97.2738 27.3963 102.326 23.6167 107.538 23.6167C112.949 23.6167 116.331 26.3221 116.45 33.4436H103.44C103.56 39.8887 105.987 41.6393 110.045 41.6393C112.472 41.6393 114.342 40.9232 115.814 40.1672V41.4801C114.421 42.992 111.437 45.0608 107.499 45.0608C100.655 44.9812 97.2738 40.9232 97.2738 34.2393ZM103.44 31.9318L110.164 31.5737C110.164 26.8393 109.528 25.0887 107.18 25.0887C105.191 25.0887 103.6 26.9984 103.44 31.9318ZM126.794 26.6404C127.908 25.4468 130.176 23.4973 132.802 23.4973C134.473 23.4973 135.865 24.85 135.865 26.5608C135.865 28.2715 134.512 29.6242 132.802 29.6242C131.568 29.6242 130.454 28.8683 130.017 27.7941C129.778 27.3565 129.261 27.2371 128.903 27.2371C128.187 27.2371 127.351 27.7543 126.834 28.2318V40.9629C126.834 42.793 126.993 42.992 128.187 43.1909L129.5 43.4694V44.5436H118.161V43.4694L119.195 43.1909C120.508 42.8328 120.667 42.6339 120.667 40.9629V28.749C120.667 27.078 120.468 26.9586 119.354 26.2027L118.042 25.3275V24.5318L126.317 23.5769L126.754 23.8952L126.675 26.6006L126.794 26.6404ZM137.059 43.4694L138.093 43.1909C139.406 42.8328 139.565 42.6339 139.565 40.9629V28.749C139.565 27.078 139.366 26.9586 138.252 26.2027L136.939 25.3275V24.5318L145.215 23.5769L145.652 23.8554L145.573 26.3619H145.732C147.801 24.8898 150.387 23.5769 153.251 23.5769C156.593 23.5769 158.383 25.2877 158.383 28.8285V40.9232C158.383 42.6339 158.543 42.8328 159.816 43.1511L160.85 43.4296V44.5038H149.909V43.4296L150.864 43.1909C152.058 42.8726 152.177 42.7533 152.177 40.9232V30.3801C152.177 27.993 151.302 27.2371 149.472 27.2371C148.079 27.2371 146.687 27.5554 145.811 27.7543V40.9629C145.811 42.8328 145.931 42.9124 147.124 43.2307L148.079 43.4694V44.5436H137.138V43.4694H137.059ZM161.606 34.3586C161.606 26.8393 166.937 23.6167 172.229 23.6167C177.918 23.6167 182.891 27.0382 182.891 34.1597C182.891 41.6791 177.639 44.9812 172.229 44.9812C166.539 44.9812 161.606 41.5597 161.606 34.3586ZM176.287 34.5576C176.287 26.6404 174.775 25.1285 172.069 25.1285C169.603 25.1285 168.131 26.9188 168.131 33.6823C168.131 41.7189 169.444 43.4694 172.308 43.4694C174.656 43.4694 176.287 42.0769 176.287 34.5576ZM186.273 39.5705V26.4414H183.806V25.4866C186.869 24.293 189.217 22.0253 190.331 18.8823H192.559V24.1339H197.771L197.253 26.4414H192.559V39.1726C192.559 41.1221 193.156 41.9178 195.105 41.9178C196.06 41.9178 197.214 41.7189 197.93 41.5597V42.6737C196.975 43.549 195.025 44.9812 191.723 44.9812C188.182 44.9812 186.273 43.4296 186.273 39.5705ZM198.725 34.2393C198.725 27.3963 203.778 23.6167 208.99 23.6167C214.401 23.6167 217.782 26.3221 217.902 33.4436H204.932C205.051 39.8887 207.478 41.6393 211.536 41.6393C213.963 41.6393 215.833 40.9232 217.305 40.1672V41.4801C215.912 42.992 212.929 45.0608 208.99 45.0608C202.107 44.9812 198.725 40.9232 198.725 34.2393ZM204.892 31.9318L211.616 31.5737C211.616 26.8393 210.979 25.0887 208.632 25.0887C206.643 25.0887 205.051 26.9984 204.892 31.9318Z" fill="#A8AFAF"/>
<path d="M12.9703 20.3539C12.9703 20.8313 12.9305 21.627 12.4531 22.1442C11.9359 22.6216 11.1402 22.6614 10.6628 22.6614H5.57033C4.09829 22.6614 3.22302 22.6614 2.62625 22.741C2.30797 22.7807 1.91012 22.9399 1.71119 23.0195C1.63162 23.0592 1.63162 23.0195 1.67141 22.9797L13.2886 11.1635C13.3284 11.1238 13.3682 11.1238 13.3284 11.2033C13.2488 11.4023 13.0897 11.8001 13.0499 12.1184C12.9703 12.7152 12.9703 13.5904 12.9703 15.0625V20.3539ZM23.7918 56.0807C22.4391 55.2055 21.723 54.0517 21.4445 53.3356C21.166 52.6592 21.0069 51.9033 21.0069 51.1474C21.0069 47.8453 23.7123 45.1399 27.0542 45.1399C28.0488 45.1399 28.8445 45.9356 28.8445 46.9302C28.8445 47.6066 28.4865 48.1635 27.9295 48.4818C27.7305 48.6012 27.452 48.6807 27.2531 48.7205C27.0542 48.7603 26.2983 48.8399 25.9402 49.1582C25.5424 49.4764 25.2241 49.9936 25.2241 50.5506C25.2241 51.1474 25.4628 51.7044 25.8606 52.1022C26.5768 52.8184 27.5316 53.2162 28.566 53.2162C31.2714 53.2162 33.4596 51.0281 33.4596 48.3227C33.4596 45.8958 31.8284 43.7474 29.68 42.7926C29.3617 42.6334 28.8445 42.5141 28.3671 42.3947C27.7703 42.2754 27.2133 42.1958 27.1736 42.1958C25.5026 41.9969 21.3252 40.684 21.0467 36.984C21.0467 36.984 19.8133 42.5539 17.3467 44.0657C17.108 44.185 16.7897 44.3044 16.4316 44.384C16.0736 44.4635 15.6757 44.5033 15.5564 44.5033C11.5381 44.742 7.28109 43.4689 4.337 40.4453C4.337 40.4453 2.34775 38.8141 1.31334 34.2388C1.07464 33.1248 0.597216 31.1356 0.318721 29.2657C0.199367 28.5893 0.159582 28.0721 0.119797 27.5947C0.119797 25.6453 1.31334 24.3324 2.82517 24.1334C2.86496 24.1334 2.98431 24.1334 3.06388 24.1334C3.97894 24.1334 10.9413 24.1334 10.9413 24.1334C12.3338 24.1334 13.1295 23.7754 13.6467 23.2979C14.323 22.6614 14.4822 21.7463 14.4822 20.6721C14.4822 20.6721 14.4822 13.4313 14.4822 12.5162C14.4822 12.4764 14.4822 12.3173 14.4822 12.2775C14.6811 10.8055 15.994 9.57214 17.9434 9.57214C17.9434 9.57214 18.5402 9.57214 18.8983 9.57214C19.2961 9.57214 19.7736 9.61193 20.2112 9.65171C20.5295 9.6915 20.808 9.77107 21.2854 9.89042C23.7123 10.4872 24.2295 12.9539 24.2295 12.9539C24.2295 12.9539 28.8047 13.7496 31.1123 14.1474C33.3004 14.5453 38.7112 14.9033 39.7456 20.3539C42.1725 33.3238 40.7004 45.8958 40.5811 45.8958C38.8703 58.1496 28.6854 57.5528 28.6854 57.5528C26.4972 57.5528 24.866 56.8367 23.7918 56.0807ZM32.9424 30.0216C31.6295 29.9023 30.5155 30.4195 30.1176 31.4141C30.0381 31.613 29.9585 31.8517 29.9983 31.9711C30.0381 32.0904 30.1176 32.1302 30.1972 32.17C30.6746 32.4087 31.4703 32.5281 32.6241 32.6474C33.7779 32.7668 34.5735 32.8463 35.0908 32.7668C35.1703 32.7668 35.2499 32.727 35.3295 32.6076C35.409 32.4883 35.3692 32.2496 35.3692 32.0506C35.2101 30.9367 34.2553 30.1807 32.9424 30.0216Z" fill="#A8AFAF"/>
</svg>
