<svg width="7065" height="650" viewBox="0 0 7065 650" fill="none" xmlns="http://www.w3.org/2000/svg">
<g clip-path="url(#clip0_226_567)">
<path d="M0.784788 42.8174L543.99 209.233L449.009 238.278L0.784788 100.906V158.994L354.027 267.322L259.043 296.366L0 217.084V275.172L164.061 325.41L0 375.65V433.738L638.188 238.278V211.588C638.188 192.749 625.63 176.264 607.575 170.769L54.9487 1.99823C28.2592 -6.63655 0.784788 13.773 0.784788 42.8174Z" fill="#A8AFAF"/>
<path d="M0.591797 549.136L638.781 353.676V295.588L0.591797 491.048V549.136Z" fill="#A8AFAF"/>
<path d="M55.8803 648.046L608.507 479.277C626.562 473.782 639.12 457.296 639.12 438.457V412.553L0.931641 608.013C0.931641 635.488 28.4058 656.683 55.8803 648.046Z" fill="#A8AFAF"/>
<mask id="mask0_226_567" style="mask-type:luminance" maskUnits="userSpaceOnUse" x="849" y="2" width="6216" height="646">
<path d="M7064.12 2.5H849.119V647.5H7064.12V2.5Z" fill="white"/>
</mask>
<g mask="url(#mask0_226_567)">
<path d="M1126.37 555.485C1184.79 555.485 1233.64 522.558 1257.01 476.883L1336.67 527.87C1297.37 596.912 1225.15 644.712 1122.12 644.712C938.374 644.712 847.031 522.558 849.155 346.232C851.28 169.907 942.622 48.8165 1122.12 47.7543C1225.15 46.6921 1297.37 95.5532 1336.67 164.596L1257.01 215.582C1233.64 169.907 1184.79 136.979 1126.37 136.979C1006.35 136.979 957.492 255.946 957.492 348.358C957.492 438.643 1006.35 555.485 1126.37 555.485Z" fill="#A8AFAF"/>
<path d="M1403.39 31.8184H1497.92V247.445C1523.41 219.828 1566.96 193.273 1633.87 193.273C1736.9 193.273 1783.63 251.694 1783.63 362.164V635.148H1688.04V371.722C1688.04 312.238 1665.73 281.435 1599.88 281.435C1557.4 281.435 1519.16 300.555 1497.92 321.799V634.087H1403.39V31.8184Z" fill="#A8AFAF"/>
<path d="M2137.37 379.166C2138.43 373.853 2138.43 366.418 2138.43 363.231C2138.43 305.873 2102.32 271.883 2050.27 271.883C1982.3 271.883 1954.68 319.682 1950.43 380.227H2137.37V379.166ZM2172.42 520.438L2218.09 583.109C2187.29 616.036 2127.81 645.777 2059.83 645.777C1914.32 645.777 1853.78 551.243 1853.78 419.528C1853.78 295.252 1918.57 194.343 2050.27 194.343C2177.73 194.343 2227.65 286.754 2227.65 379.166C2227.65 401.471 2225.52 432.276 2221.27 450.333H1950.43C1952.56 519.377 1986.55 563.988 2059.83 563.988C2095.94 562.926 2139.49 550.179 2172.42 520.438Z" fill="#A8AFAF"/>
<path d="M2581.79 379.166C2582.85 373.853 2582.85 366.418 2582.85 363.231C2582.85 305.873 2546.74 271.883 2494.69 271.883C2426.72 271.883 2399.1 319.682 2394.85 380.227H2581.79V379.166ZM2616.84 520.438L2662.51 583.109C2631.71 616.036 2572.23 645.777 2504.25 645.777C2358.74 645.777 2298.2 551.243 2298.2 419.528C2298.2 295.252 2362.99 194.343 2494.69 194.343C2622.15 194.343 2672.07 286.754 2672.07 379.166C2672.07 401.471 2669.94 432.276 2665.7 450.333H2394.85C2396.98 519.377 2430.97 563.988 2504.25 563.988C2540.37 562.926 2582.85 550.179 2616.84 520.438Z" fill="#A8AFAF"/>
<path d="M3012.04 313.326C2988.67 286.771 2952.56 266.589 2905.82 266.589C2855.9 266.589 2834.66 291.02 2834.66 320.761C2834.66 344.13 2847.41 362.187 2881.39 369.622L2954.68 386.618C3037.53 405.737 3075.76 448.224 3075.76 510.895C3075.76 581.001 3025.84 645.794 2895.2 645.794C2802.8 645.794 2750.75 606.493 2724.2 572.504L2780.49 515.143C2803.86 542.761 2837.85 572.504 2898.39 572.504C2946.18 572.504 2979.11 554.444 2979.11 518.33C2979.11 492.838 2958.93 477.968 2923.88 469.468L2848.47 450.35C2775.18 432.293 2738.01 388.741 2738.01 329.26C2738.01 266.589 2783.68 193.297 2907.95 193.297C2990.79 193.297 3038.59 225.163 3066.2 255.967L3012.04 313.326Z" fill="#A8AFAF"/>
<path d="M3406.09 379.166C3407.15 373.853 3407.15 366.418 3407.15 363.231C3407.15 305.873 3371.04 271.883 3318.99 271.883C3251.02 271.883 3223.4 319.682 3219.15 380.227H3406.09V379.166ZM3441.14 520.438L3486.81 583.109C3456.01 616.036 3396.53 645.777 3328.55 645.777C3183.04 645.777 3122.5 551.243 3122.5 419.528C3122.5 295.252 3187.29 194.343 3318.99 194.343C3446.45 194.343 3496.37 286.754 3496.37 379.166C3496.37 401.471 3494.24 432.276 3490 450.333H3219.15C3221.28 519.377 3255.27 563.988 3328.55 563.988C3365.73 562.926 3408.21 550.179 3441.14 520.438Z" fill="#A8AFAF"/>
<path d="M3759.09 193.297C3835.57 193.297 3896.11 224.101 3926.92 285.709L3858.94 333.508C3838.74 298.456 3809.01 277.211 3765.46 277.211C3688.99 277.211 3660.31 336.695 3660.31 418.484C3660.31 500.273 3688.99 559.757 3765.46 559.757C3809.01 559.757 3839.82 538.513 3859.99 504.521L3926.92 552.322C3896.11 612.867 3835.57 644.733 3759.09 644.733C3619.95 644.733 3562.6 543.822 3562.6 418.484C3561.54 296.33 3619.95 193.297 3759.09 193.297Z" fill="#A8AFAF"/>
<path d="M4150.02 570.361C4191.44 570.361 4229.7 550.179 4253.06 525.748V433.337L4193.58 441.836C4124.54 451.394 4085.23 472.638 4085.23 516.19C4085.23 552.304 4107.54 570.361 4150.02 570.361ZM4259.43 635.155V583.109C4231.81 613.911 4186.14 645.777 4118.15 645.777C4039.55 645.777 3988.57 597.979 3988.57 521.5C3988.57 429.089 4069.31 388.726 4193.58 379.166L4254.12 372.792V338.801C4254.12 295.252 4235 270.821 4174.47 270.821C4121.35 270.821 4095.87 289.941 4095.87 317.557V338.801H4011.94C4010.88 329.243 4009.83 318.621 4009.83 309.06C4009.83 242.142 4070.37 194.343 4179.77 194.343C4284.93 194.343 4348.63 240.017 4348.63 338.801V636.219H4259.43V635.155Z" fill="#A8AFAF"/>
<path d="M4713.21 635.148L4588.97 433.331L4526.29 493.876V635.148H4431.77V31.8184H4526.29V381.282L4707.9 202.833H4825.81L4656.92 367.473L4821.56 635.148H4713.21Z" fill="#A8AFAF"/>
<path d="M5119.5 379.166C5120.56 373.853 5120.56 366.418 5120.56 363.231C5120.56 305.873 5084.44 271.883 5032.4 271.883C4964.42 271.883 4936.83 319.682 4932.58 380.227H5119.5V379.166ZM5154.56 520.438L5200.24 583.109C5169.43 616.036 5109.94 645.777 5041.96 645.777C4896.46 645.777 4835.93 551.243 4835.93 419.528C4835.93 295.252 4900.71 194.343 5032.4 194.343C5159.87 194.343 5209.79 286.754 5209.79 379.166C5209.79 401.471 5207.65 432.276 5203.4 450.333H4932.58C4934.69 519.377 4968.67 563.988 5041.96 563.988C5079.13 562.926 5121.64 550.179 5154.56 520.438Z" fill="#A8AFAF"/>
<path d="M5795.17 550.179V635.154H5426.61V50.9438H5529.63V550.179H5795.17Z" fill="#A8AFAF"/>
<path d="M6007.95 570.361C6049.38 570.361 6087.63 550.179 6111 525.748V433.337L6051.52 441.836C5982.48 451.394 5943.16 472.638 5943.16 516.19C5943.16 552.304 5965.47 570.361 6007.95 570.361ZM6117.36 635.155V583.109C6089.74 613.911 6044.07 645.777 5976.09 645.777C5897.49 645.777 5845.45 597.979 5845.45 521.5C5845.45 429.089 5926.19 388.726 6050.46 379.166L6111 372.792V338.801C6111 295.252 6091.88 270.821 6031.32 270.821C5978.23 270.821 5952.72 289.941 5952.72 317.557V338.801H5868.82C5867.76 329.243 5866.71 318.621 5866.71 309.06C5866.71 242.142 5927.24 194.343 6036.65 194.343C6141.78 194.343 6205.51 240.017 6205.51 338.801V636.219H6117.36V635.155Z" fill="#A8AFAF"/>
<path d="M6468.89 281.435C6418.99 281.435 6390.29 303.742 6375.43 321.799V510.872C6391.37 532.116 6424.3 556.546 6468.89 556.546C6554.93 556.546 6578.29 497.063 6578.29 417.396C6578.29 338.794 6552.82 281.435 6468.89 281.435ZM6375.43 238.948C6396.68 215.579 6429.6 193.273 6490.14 193.273C6616.52 193.273 6674.95 278.249 6674.95 417.396C6674.95 553.359 6612.3 644.709 6490.14 644.709C6423.24 644.709 6381.82 620.278 6358.45 595.847L6329.75 635.148H6279.86V31.8184H6374.37V238.948H6375.43Z" fill="#A8AFAF"/>
<path d="M7002.76 313.296C6979.4 286.742 6943.28 266.561 6896.55 266.561C6846.62 266.561 6825.37 290.992 6825.37 320.732C6825.37 344.101 6838.12 362.158 6872.1 369.593L6945.39 386.589C7028.24 405.71 7066.49 448.198 7066.49 510.866C7066.49 580.972 7016.57 645.768 6885.91 645.768C6793.5 645.768 6741.47 606.467 6714.91 572.475L6771.22 515.117C6794.59 542.732 6828.56 572.475 6889.1 572.475C6936.89 572.475 6969.84 554.418 6969.84 518.301C6969.84 492.809 6949.64 477.939 6914.61 469.442L6839.18 450.321C6765.89 432.264 6728.71 388.715 6728.71 329.231C6728.71 266.561 6774.39 193.269 6898.66 193.269C6981.51 193.269 7029.29 225.135 7056.91 255.939L7002.76 313.296Z" fill="#A8AFAF"/>
</g>
</g>
<defs>
<clipPath id="clip0_226_567">
<rect width="7065" height="650" fill="white"/>
</clipPath>
</defs>
</svg>
