<svg width="700" height="700" viewBox="0 0 700 700" fill="none" xmlns="http://www.w3.org/2000/svg">
<path d="M586.939 281.767H575.915C572.766 281.767 570.87 283.639 570.87 286.734V318.859C570.87 330.652 564.413 337.325 555.43 337.325C545.98 337.325 540.624 331.275 540.624 319.637V286.73C540.624 283.629 538.721 281.763 535.579 281.763H524.554C521.406 281.763 519.51 283.636 519.51 286.73V321.185C519.51 343.068 531.015 355.48 548.344 355.48C558.738 355.48 566.776 352.067 572.444 345.082L573.396 349.43C574.029 352.24 575.918 353.774 578.911 353.774H586.942C590.098 353.774 591.987 351.898 591.987 348.807V286.734C591.981 283.632 590.091 281.767 586.939 281.767ZM510.06 334.843H490.212C483.281 334.843 479.655 331.275 479.655 324.445V286.73C479.655 283.629 477.752 281.763 474.613 281.763H463.27C460.121 281.763 458.232 283.636 458.232 286.73V327.08C458.232 343.684 468.468 353.787 485.346 353.787H510.08C513.229 353.787 515.125 351.915 515.125 348.82V339.804C515.105 336.702 513.208 334.843 510.06 334.843ZM188.992 286.578C188.673 283.341 186.94 281.767 183.784 281.767H175.435C172.76 281.767 170.871 282.85 169.452 285.183L149.127 319.014L130.223 285.183C128.967 282.836 126.898 281.763 124.237 281.763H115.265C112.109 281.763 110.375 283.341 110.057 286.578L104.863 348.654C104.545 352.074 106.292 353.777 109.586 353.777H119.673C122.822 353.777 124.715 352.226 124.87 348.966L127.078 314.2L139.206 335.754C140.469 338.097 142.538 339.174 145.192 339.174H152.126C154.805 339.174 156.694 338.233 158.109 335.754L171.822 312.629L173.393 348.945C173.552 352.226 175.296 353.757 178.438 353.757H189.307C192.635 353.757 194.348 352.054 194.03 348.637L188.992 286.578ZM443.575 281.767H434.914C431.917 281.767 429.869 283.317 429.402 286.27L428.928 289.838C424.045 284.719 416.948 280.06 405.135 280.06C385.284 280.06 370.633 295.425 370.633 317.616C370.633 339.343 384.336 355.484 403.872 355.484C416.163 355.484 424.197 350.361 429.083 345.086L429.872 349.433C430.346 352.243 432.252 353.777 435.229 353.777H443.578C446.73 353.777 448.62 351.901 448.62 348.81V286.734C448.616 283.632 446.724 281.767 443.575 281.767ZM409.733 337.325C398.543 337.325 391.456 329.721 391.456 317.924C391.456 305.979 398.858 298.218 409.733 298.218C420.917 298.218 428.003 305.823 428.003 317.619C427.979 329.565 420.578 337.325 409.733 337.325ZM358.031 281.767H349.37C346.373 281.767 344.325 283.317 343.851 286.27L343.377 289.838C338.495 284.719 331.408 280.06 319.591 280.06C299.743 280.06 285.106 294.494 285.106 316.685C285.106 337.792 298.653 352.69 318.186 352.69C330.318 352.69 337.567 347.723 342.449 342.448V346.017C342.449 358.429 335.359 366.349 320.397 366.349C314.259 366.349 308.191 365.072 302.591 362.601C299.601 361.196 297.234 361.822 295.819 364.768L292.352 371.6C290.923 374.411 291.401 376.723 294.086 378.274C302.435 382.926 312.674 384.792 322.598 384.792C347.332 384.792 363.086 369.427 363.086 348.008V286.734C363.073 283.632 361.183 281.767 358.031 281.767ZM324.162 334.996C313.29 334.996 305.889 327.858 305.889 316.837C305.889 305.2 313.605 298.215 324.162 298.215C335.031 298.215 342.432 304.58 342.432 316.533C342.432 327.235 334.719 334.996 324.162 334.996ZM272.487 281.767H263.823C260.826 281.767 258.781 283.317 258.304 286.27L257.83 289.838C252.951 284.719 245.864 280.06 234.047 280.06C214.196 280.06 199.545 295.425 199.545 317.616C199.545 339.343 213.251 355.484 232.788 355.484C245.072 355.484 253.106 350.361 257.996 345.086L258.788 349.433C259.262 352.243 261.165 353.777 264.144 353.777H272.491C275.646 353.777 277.535 351.901 277.535 348.81V286.734C277.529 283.632 275.639 281.767 272.487 281.767ZM238.615 337.325C227.431 337.325 220.338 329.721 220.338 317.924C220.338 305.979 227.743 298.218 238.615 298.218C249.802 298.218 256.888 305.823 256.888 317.619C256.888 329.565 249.487 337.325 238.615 337.325Z" fill="#A8AFAF"/>
</svg>
