<svg width="2647" height="2646" viewBox="0 0 2647 2646" fill="none" xmlns="http://www.w3.org/2000/svg">
<path d="M1864.72 965.289L1699.31 1322.5H1760.18L1796.64 1243.06H1961.36L1997.36 1322.5H2058.23L1892.73 965.289H1864.72ZM1818.67 1193.18L1878.74 1062.02L1938.64 1193.18H1818.67ZM1037.72 965.748H912.718V1322.5H1037.72C1134.91 1319.02 1209.62 1236.83 1209.62 1144.46C1209.62 1047.7 1130.32 967.596 1037.72 965.748ZM1036.05 1268.67H968.071V1019.3H1037C1066.44 1019.3 1094.57 1031.3 1116.19 1052.78C1140.13 1076.8 1153.87 1110.05 1153.85 1144.46C1153.85 1211.66 1100.02 1268.67 1036.05 1268.67ZM1621.97 965.032H1675.09L1597.5 1322.04H1561.91L1475.06 1116.75L1388.17 1322.04H1352.53L1274.97 965.032H1328.1L1384.91 1192.49L1463.01 1016.07H1487.14L1564.84 1193.18L1621.97 965.032ZM743.914 965.497H799.497V1322.71H743.914V965.497ZM560.285 965.752H623.142V1322.51H566.913V1049.78L453.737 1223.21L340.516 1049.78V1322.51H284.309V965.752H347.189L453.668 1125.53L453.734 1125.3L453.78 1125.53L560.281 965.752H560.285ZM2362.36 966.191L2241.75 1145.62C2233.74 1158.09 2225.05 1168.48 2224.98 1194.8L2224.79 1322.73L2169.23 1322.96V1195.06C2169.23 1168.5 2160.43 1158.11 2152.39 1145.64L2031.76 966.212H2095.79L2197.12 1116.08L2298.41 966.212H2362.35M767.941 1588.53V1620.85H811.954V1635.17H767.941V1679.71H751.985V1574.21H819.505V1588.53H767.941ZM874.004 1679.71H890.029V1574.18H874.004V1679.71Z" fill="#A8AFAF"/>
<path d="M1017.63 1679.69L968.788 1605.59V1679.69H952.715V1574.18H967.516L1016.36 1648.31V1574.18H1032.41V1679.69H1017.63ZM1155.9 1679.69L1148.63 1658.7H1106.85L1099.58 1679.69H1082.56L1121.29 1574.18H1134.15L1172.92 1679.69H1155.9ZM1128.12 1597.97L1111.66 1644.85H1144.15L1128.12 1597.97ZM1287.99 1679.69L1239.13 1605.59V1679.69H1223.1V1574.18H1237.72L1286.63 1648.31V1574.18H1302.65V1679.69H1287.99ZM1399.57 1680.64C1388.58 1680.64 1379.09 1676.69 1371.84 1669.53C1361.49 1658.93 1361.61 1647.38 1361.61 1627.06C1361.61 1606.74 1361.48 1594.96 1371.84 1584.57C1379.09 1577.41 1388.58 1573.25 1399.57 1573.25C1419.09 1573.25 1433.59 1584.8 1437.31 1605.82H1421C1418.44 1594.96 1411.33 1587.8 1399.57 1587.8C1393.36 1587.8 1387.73 1590.11 1383.99 1594.04C1378.82 1599.81 1377.68 1605.82 1377.68 1627.06C1377.68 1648.08 1378.82 1654.29 1383.99 1659.83C1387.73 1663.99 1393.36 1666.3 1399.57 1666.3C1411.33 1666.3 1418.65 1658.93 1421.12 1648.08H1437.31C1433.75 1669.3 1418.74 1680.64 1399.57 1680.64ZM1493.86 1679.69V1574.18H1561.38V1588.5H1509.93V1619.44H1553.83V1633.76H1509.93V1665.4H1561.38V1679.69L1493.86 1679.69ZM1618.53 1574.18H1634.58V1679.71H1618.53V1574.18ZM1755.7 1679.69L1733.42 1635.38H1713.37V1679.69H1697.37V1574.18H1738.36C1758.4 1574.18 1771.13 1587.12 1771.13 1605.12C1771.13 1620.14 1761.91 1629.84 1750.07 1633.07L1774.41 1679.69H1755.7ZM1737.16 1588.5H1713.37V1621.75H1737.16C1747.85 1621.75 1755.06 1615.52 1755.06 1605.12C1755.06 1594.74 1747.85 1588.5 1737.16 1588.5ZM1890.49 1679.69L1883.24 1658.7H1841.47L1834.22 1679.69H1817.17L1855.83 1574.18H1868.76L1907.49 1679.69H1890.49ZM1862.71 1598.2L1846.22 1644.85H1878.67L1862.71 1598.2Z" fill="#A8AFAF"/>
</svg>
