<svg width="9679" height="2082" viewBox="0 0 9679 2082" fill="none" xmlns="http://www.w3.org/2000/svg">
<path d="M1583.64 1370.97L1773.03 1114.47L1840 1322.33L1841.22 1326.13L1843.3 1322.72L1854.1 1305L1854.42 1304.47L1854.36 1303.85C1845.88 1225.81 1826.76 1147.79 1800.23 1069.8C1837.97 1008.81 1874.41 947.044 1909.54 884.529L1909.57 884.467L1909.61 884.401C1943.26 811.626 1956.33 751.237 1951.87 701.324C1947.39 651.341 1925.35 612.002 1889.08 581.4L1889.03 581.36L1888.98 581.324C1777.1 499.147 1617.66 478.181 1451.87 465.948C1367.82 365.687 1279.92 267.304 1183.79 173.015L1183.77 172.988C1139.7 131.619 1100.52 106.505 1067.51 102.063C1050.92 99.8302 1035.87 102.815 1022.62 111.579C1009.41 120.313 998.144 134.688 988.874 154.983C968.322 194.673 950.085 248.478 932.462 305.663C926.582 324.741 920.771 344.193 914.963 363.636C903.454 402.158 891.96 440.643 879.965 476.099C607.273 501.784 338.854 561.954 74.3841 653.558C227.202 267.635 604.355 1.80994 1043.61 1.82642C1617.36 1.82642 2081.17 461.382 2091.63 1035.23C2091.77 1179.73 2061.93 1322.67 2004 1455.02C1875.89 1416.18 1741.3 1383.23 1583.64 1370.97ZM26.0502 811.644C249.265 702.284 526.653 603.652 838.287 578.489C800.517 676.234 748.576 766.125 686.751 850.541L573.755 666.112L571.479 662.401L570.427 666.624L561.851 700.991L561.665 701.733L562.063 702.387L668.346 876.285C591.049 981.093 520.199 1092.38 451.157 1205.36L451.094 1205.47L451.047 1205.57C447.668 1213.15 444.239 1220.72 440.82 1228.26C420.399 1273.32 400.333 1317.6 393.305 1358.55C389.196 1382.52 389.518 1405.47 396.896 1426.89C404.281 1448.33 418.683 1468.07 442.482 1485.68L442.551 1485.73L442.624 1485.77C490.161 1514.54 563.371 1521.91 652.257 1519.15C727.91 1516.81 815.255 1507.11 908.345 1496.77C924.288 1495 940.403 1493.21 956.652 1491.43C976.043 1537.68 987.969 1584.07 999.583 1629.25C1002 1638.69 1004.42 1648.06 1006.88 1657.38C1021.23 1711.65 1037.32 1763.67 1068.09 1810.5L1068.12 1810.54L1068.15 1810.58C1093.25 1844.56 1120.1 1858.14 1148.26 1856.27C1176.23 1854.41 1205.02 1837.31 1234.16 1811.14L1234.21 1811.09L1234.26 1811.04C1334.56 1705.72 1422.76 1588.28 1509.17 1469.01C1630.35 1474.23 1732.68 1494.38 1812.38 1532.62C1849.18 1558.18 1864.45 1587.67 1866.62 1617.28C1868.8 1646.98 1857.8 1677.09 1841.46 1703.8C1662.87 1938.01 1363.41 2077.01 1043.6 2077.01C469.842 2077.01 1.82812 1609.02 1.82812 1035.19C1.82812 958.513 10.1827 883.714 26.0502 811.644ZM1371.21 460.159C1252.5 456.25 1133.68 458.285 1015.18 466.262C1036.72 407.374 1063.88 352.552 1099.31 303.714C1116.9 286.112 1136.16 276.681 1157.55 276.94C1179.03 277.2 1203 287.235 1229.93 309.289C1292.77 362.174 1332.57 411.202 1371.21 460.159ZM1770.53 804.452C1766.63 861.072 1755.34 895.578 1743.56 928.59C1693.18 825.783 1636.77 726.045 1574.6 629.904C1615.68 639.145 1657 649.84 1699.94 668.885C1752.94 696.827 1769.95 745.608 1770.53 804.452ZM625.85 1196.05L734.7 995.934C804.904 1120.41 865.272 1250.19 915.255 1384.09C859.457 1388.81 806.902 1392 761.527 1391.79C715.488 1391.57 677.013 1387.84 650.076 1378.73C631.102 1371.33 618.176 1361.26 609.888 1349.17C601.594 1337.07 597.835 1322.79 597.452 1306.83C596.681 1274.82 609.461 1236.39 625.85 1196.05ZM1078.96 1632.98C1054.65 1585.15 1033.57 1535.73 1015.84 1485.07C1140.91 1472.66 1266.51 1466.35 1392.19 1466.17C1350.05 1518.06 1306.22 1568.56 1260.77 1617.59C1244.4 1634.1 1228.08 1649.43 1211.98 1661.6C1195.86 1673.8 1180.07 1682.75 1164.75 1686.6C1149.51 1690.44 1134.73 1689.23 1120.49 1681.08C1106.19 1672.89 1092.26 1657.62 1078.96 1632.98ZM964.735 567.122C1155.89 567.455 1332.85 579.943 1489.14 610.044C1581.39 727.367 1662.75 849.237 1720.18 981.302C1660.67 1102.23 1578.88 1228.19 1474.79 1359.15C1307.94 1353.78 1139.64 1352.22 962.694 1376.7L753.832 960.883C834.083 835.211 904.59 703.574 964.735 567.122Z" fill="#A8AFAF" stroke="#A8AFAF"/>
<path fill-rule="evenodd" clip-rule="evenodd" d="M7427.19 1573.14C7438.3 1589.74 7462.8 1593.44 7485.96 1603.64C7548.09 1633.96 7654.37 1626.74 7693.13 1566.28C7718.55 1474.97 7635.78 1441.13 7597.21 1421.55C7516.79 1384.92 7418.97 1334.11 7425.84 1245.69C7421.75 1174.5 7520.4 1118.47 7584.1 1118.47C7640.53 1122.9 7697.33 1121.98 7735.46 1144.9L7731.4 1203.37C7711.21 1186.78 7646.67 1166.92 7607.37 1166.92C7558.5 1166.92 7499.84 1178.91 7498.3 1238.3C7498.3 1299.12 7567.88 1336.47 7613.07 1355.15C7725.27 1401.71 7818.22 1471.28 7750.98 1592.56C7715.44 1647.69 7640.46 1669.25 7577.89 1669.25C7531.47 1669.25 7457.73 1658.33 7426.53 1644.62L7427.19 1573.14ZM6542.53 789.549C6548.12 797.855 6560.46 799.747 6572.26 804.887C6603.71 820.22 6657.36 816.706 6677.01 786.207C6689.98 739.822 6648.09 722.772 6628.51 712.935C6587.86 694.431 6538.37 668.727 6541.8 624.136C6539.83 588.044 6589.57 559.627 6621.94 559.627C6650.42 561.881 6679.17 561.439 6698.49 572.977L6696.48 602.575C6686.29 594.097 6653.6 584.074 6633.73 584.074C6609.04 584.074 6579.31 590.203 6578.58 620.166C6578.58 651.027 6613.83 669.703 6636.73 679.364C6693.52 702.832 6740.49 738.01 6706.49 799.367C6688.45 827.252 6650.61 838.173 6618.87 838.173C6595.42 838.173 6558.09 832.577 6542.24 825.626L6542.53 789.549ZM3475.55 789.549C3481.14 797.855 3493.48 799.747 3505.29 804.887C3536.75 820.22 3590.47 816.706 3610.12 786.207C3623.02 739.822 3581.18 722.772 3561.63 712.935C3520.97 694.431 3471.49 668.727 3474.9 624.136C3472.92 588.044 3522.77 559.627 3554.95 559.627C3583.53 561.881 3612.28 561.439 3631.57 572.977L3629.58 602.575C3619.4 594.097 3586.68 584.074 3566.76 584.074C3542.06 584.074 3512.31 590.203 3511.59 620.166C3511.59 651.027 3546.84 669.703 3569.74 679.364C3626.43 702.832 3673.49 738.01 3639.5 799.367C3621.57 827.252 3583.61 838.173 3551.98 838.173C3528.45 838.173 3491.21 832.577 3475.36 825.626L3475.55 789.549ZM6820.52 1661.75V1133.06H6896.45L7189.86 1548.15V1133.06H7260.79V1661.75H7185L6891.49 1246.23V1661.75H6820.52ZM9231.54 1661.75V1133.06H9307.33L9600.73 1548.15V1133.06H9671.7V1661.75H9595.8L9302.29 1246.23V1661.75H9231.54ZM6551.7 1658.94V1131.98H6622.74V1658.94H6551.7ZM4320.27 832.939V566.483H4356.25V832.939H4320.27ZM8955.52 1658.94V1131.98H9026.53V1658.94H8955.52ZM8701.46 832.939V566.483H8737.44V832.939H8701.46ZM6251.47 832.939V566.483H6287.41V832.939H6251.47ZM5349.53 1658.94V1175.55H5126.88V1130.79H5639.9V1175.55H5420.61V1658.94H5349.53ZM8073.24 1658.94V1175.55H7850.58V1130.79H8363.72V1175.55H8144.31V1658.94H8073.24ZM9077.92 832.939V588.501H8965.24V565.76H9224.78V588.501H9113.78V832.939H9077.92ZM4696.54 832.939V588.501H4583.87V565.76H4843.41V588.501H4732.52V832.939H4696.54ZM4141.44 1658.94V1132.34H4479.22V1182.06H4221.4V1359.91H4440.43V1409.27H4221.4V1609.24H4498.58V1658.96L4141.44 1658.94ZM6076.37 1658.94V1132.34H6414.15V1182.06H6156.32V1359.91H6375.47V1409.27H6156.32V1609.24H6433.69V1658.96L6076.37 1658.94ZM8476.1 1658.94V1132.34H8813.88V1182.06H8556.06V1359.91H8775.13V1409.27H8556.06V1609.24H8833.35V1658.96L8476.1 1658.94ZM7877.72 832.939V566.658H8048.66V591.829H7918.3V681.698H8029.01V706.507H7918.3V807.831H8058.48V832.924L7877.72 832.939ZM3125.06 1658.94V1135.31H3204.57V1605.53H3481.58V1658.94H3125.06ZM8302.87 832.939V568.185H8343.04V805.957H8483.15V832.939H8302.87ZM5495.23 832.939V568.185H5535.33V805.957H5675.58V832.939H5495.23ZM2601.59 1451.14H2804.69L2699.67 1188.19L2601.59 1451.14ZM2428.88 1658.94L2658.84 1132.87H2744.12L2989.13 1658.94H2898.8L2829.03 1507.89H2578.7L2512.98 1658.94H2428.88ZM5075.41 727.907H5178.19L5125.09 594.805L5075.41 727.907ZM4988.16 832.939L5104.45 567.02H5147.62L5271.55 832.939H5225.86L5190.5 756.61H5063.87L5030.71 832.939H4988.16ZM7453.96 727.907H7556.63L7503.53 594.805L7453.96 727.907ZM7366.52 832.939L7482.82 567.02H7525.99L7649.92 832.939H7604.23L7568.87 756.61H7442.31L7409.15 832.939H7366.52ZM9474.65 727.907H9577.43L9524.32 594.805L9474.65 727.907ZM9387.28 832.939L9503.57 567.02H9546.75L9670.6 832.939H9625.09L9589.66 756.61H9463.11L9429.9 832.939H9387.28ZM4721.97 1382.83H4791.73C4920.18 1382.83 4979.43 1178.36 4817.15 1178.36H4721.97V1382.83ZM4638.4 1661.93V1132.34H4868.28C4901.26 1132.34 5002.69 1164.92 5002.26 1265.88C5001.89 1351.51 4931.4 1389.95 4879.57 1412.7L5074.54 1661.93H4985.13L4804.47 1426.86H4722V1661.93H4638.4ZM6998.21 693.342H7033.53C7098.54 693.342 7128.46 589.936 7046.42 589.936H6998.28V693.342H6998.21ZM6956.03 834.484V566.578H7072.28C7088.97 566.578 7140.25 583 7140.07 634.068C7139.93 677.377 7104.21 696.78 7078.05 708.428L7176.67 834.389H7131.42L7039.92 715.455H6998.28V834.484H6956.03ZM3936.72 693.342H3972.04C4037.06 693.342 4066.97 589.936 3984.94 589.936H3936.83V693.342H3936.72ZM3894.47 834.484V566.578H4010.72C4027.42 566.578 4078.7 583 4078.44 634.068C4078.26 677.377 4043.01 698.577 4017.15 710.762C4003.89 716.529 3994.69 715.189 3978.36 715.536H3936.62V834.469L3894.47 834.484ZM3617.43 1132.87H3797.46C3834.02 1132.87 3863.42 1138.37 3885.59 1148.93C3907.76 1159.49 3929.24 1171.85 3941.77 1193.87C3988.99 1277.24 3917.62 1362.51 3839.46 1381.91C3894.61 1399.5 3979.71 1453.83 3979.71 1506.52C3981.32 1580.33 3943.48 1636.38 3877.77 1650.17C3856.77 1655.94 3830.88 1659.01 3800.34 1659.01H3617.43V1132.87ZM3693.43 1609.24H3762.83C3808.2 1609.24 3864.63 1600.2 3883.91 1561.68C3890.38 1547.86 3893.63 1532.73 3893.37 1517.47C3893.77 1499.43 3889.02 1481.65 3879.67 1466.22C3856.41 1429.59 3791.43 1407.94 3754.36 1407.94H3693.43V1609.24ZM3693.43 1362.35H3768.05C3803.67 1362.35 3841.25 1348.09 3865.25 1312.09C3873.87 1298.33 3878.14 1282.29 3877.52 1266.07C3877.52 1248.83 3873.72 1233.32 3866.16 1220.05C3842.64 1179.35 3797.75 1178.27 3760.13 1178.27H3693.43V1362.35ZM2511.45 831.679H2539.84V565.946H2511.45V831.679ZM2680.47 831.679H2708.87V565.946H2680.47V831.679Z" fill="#A8AFAF"/>
<path fill-rule="evenodd" clip-rule="evenodd" d="M2676.88 703.197V685.416H2538.14V703.197H2676.88ZM3098.49 555.2C3165.01 555.2 3219.36 620.988 3219.36 701.462C3219.36 781.937 3165.01 847.725 3098.49 847.725C3031.87 847.725 2977.52 781.937 2977.52 701.462C2977.52 620.988 3031.77 555.2 3098.49 555.2ZM3098.49 583.712C3149.33 583.712 3190.88 636.592 3190.88 701.462C3190.88 766.337 3149.33 819.135 3098.49 819.135C3047.55 819.135 3006 766.256 3006 701.382C3006 636.511 3047.46 583.712 3098.49 583.712Z" fill="#A8AFAF"/>
<mask id="mask0_226_591" style="mask-type:luminance" maskUnits="userSpaceOnUse" x="2421" y="551" width="7258" height="1122">
<path d="M9679 551.547H2421.58V1672.91H9679V551.547Z" fill="white"/>
<path fill-rule="evenodd" clip-rule="evenodd" d="M7427.19 1573.14C7438.3 1589.74 7462.8 1593.44 7485.96 1603.64C7548.09 1633.96 7654.37 1626.74 7693.13 1566.28C7718.55 1474.97 7635.78 1441.13 7597.21 1421.55C7516.79 1384.92 7418.97 1334.11 7425.84 1245.69C7421.75 1174.5 7520.4 1118.47 7584.1 1118.47C7640.53 1122.9 7697.33 1121.98 7735.46 1144.9L7731.4 1203.37C7711.21 1186.78 7646.67 1166.92 7607.37 1166.92C7558.5 1166.92 7499.84 1178.91 7498.3 1238.3C7498.3 1299.12 7567.88 1336.47 7613.07 1355.15C7725.27 1401.71 7818.22 1471.28 7750.98 1592.56C7715.44 1647.69 7640.46 1669.25 7577.89 1669.25C7531.47 1669.25 7457.73 1658.33 7426.53 1644.62L7427.19 1573.14ZM6542.53 789.549C6548.12 797.855 6560.46 799.747 6572.26 804.887C6603.71 820.22 6657.36 816.706 6677.01 786.207C6689.98 739.822 6648.09 722.772 6628.51 712.935C6587.86 694.431 6538.37 668.727 6541.8 624.136C6539.83 588.044 6589.57 559.627 6621.94 559.627C6650.42 561.881 6679.17 561.439 6698.49 572.977L6696.48 602.575C6686.29 594.097 6653.6 584.074 6633.73 584.074C6609.04 584.074 6579.31 590.203 6578.58 620.166C6578.58 651.027 6613.83 669.703 6636.73 679.364C6693.52 702.832 6740.49 738.01 6706.49 799.367C6688.45 827.252 6650.61 838.173 6618.87 838.173C6595.42 838.173 6558.09 832.577 6542.24 825.626L6542.53 789.549ZM3475.55 789.549C3481.14 797.855 3493.48 799.747 3505.29 804.887C3536.75 820.22 3590.47 816.706 3610.12 786.207C3623.02 739.822 3581.18 722.772 3561.63 712.935C3520.97 694.431 3471.49 668.727 3474.9 624.136C3472.92 588.044 3522.77 559.627 3554.95 559.627C3583.53 561.881 3612.28 561.439 3631.57 572.977L3629.58 602.575C3619.4 594.097 3586.68 584.074 3566.76 584.074C3542.06 584.074 3512.31 590.203 3511.59 620.166C3511.59 651.027 3546.84 669.703 3569.74 679.364C3626.43 702.832 3673.49 738.01 3639.5 799.367C3621.57 827.252 3583.61 838.173 3551.98 838.173C3528.45 838.173 3491.21 832.577 3475.36 825.626L3475.55 789.549ZM6820.52 1661.75V1133.06H6896.45L7189.86 1548.15V1133.06H7260.79V1661.75H7185L6891.49 1246.23V1661.75H6820.52ZM9231.54 1661.75V1133.06H9307.33L9600.73 1548.15V1133.06H9671.7V1661.75H9595.8L9302.29 1246.23V1661.75H9231.54ZM6551.7 1658.94V1131.98H6622.74V1658.94H6551.7ZM4320.27 832.939V566.483H4356.25V832.939H4320.27ZM8955.52 1658.94V1131.98H9026.53V1658.94H8955.52ZM8701.46 832.939V566.483H8737.44V832.939H8701.46ZM6251.47 832.939V566.483H6287.41V832.939H6251.47ZM5349.53 1658.94V1175.55H5126.88V1130.79H5639.9V1175.55H5420.61V1658.94H5349.53ZM8073.24 1658.94V1175.55H7850.58V1130.79H8363.72V1175.55H8144.31V1658.94H8073.24ZM9077.92 832.939V588.501H8965.24V565.76H9224.78V588.501H9113.78V832.939H9077.92ZM4696.54 832.939V588.501H4583.87V565.76H4843.41V588.501H4732.52V832.939H4696.54ZM4141.44 1658.94V1132.34H4479.22V1182.06H4221.4V1359.91H4440.43V1409.27H4221.4V1609.24H4498.58V1658.96L4141.44 1658.94ZM6076.37 1658.94V1132.34H6414.15V1182.06H6156.32V1359.91H6375.47V1409.27H6156.32V1609.24H6433.69V1658.96L6076.37 1658.94ZM8476.1 1658.94V1132.34H8813.88V1182.06H8556.06V1359.91H8775.13V1409.27H8556.06V1609.24H8833.35V1658.96L8476.1 1658.94ZM7877.72 832.939V566.658H8048.66V591.829H7918.3V681.698H8029.01V706.507H7918.3V807.831H8058.48V832.924L7877.72 832.939ZM3125.06 1658.94V1135.31H3204.57V1605.53H3481.58V1658.94H3125.06ZM8302.87 832.939V568.185H8343.04V805.957H8483.15V832.939H8302.87ZM5495.23 832.939V568.185H5535.33V805.957H5675.58V832.939H5495.23ZM2601.59 1451.14H2804.69L2699.67 1188.19L2601.59 1451.14ZM2428.88 1658.94L2658.84 1132.87H2744.12L2989.13 1658.94H2898.8L2829.03 1507.89H2578.7L2512.98 1658.94H2428.88ZM5075.41 727.907H5178.19L5125.09 594.805L5075.41 727.907ZM4988.16 832.939L5104.45 567.02H5147.62L5271.55 832.939H5225.86L5190.5 756.61H5063.87L5030.71 832.939H4988.16ZM7453.96 727.907H7556.63L7503.53 594.805L7453.96 727.907ZM7366.52 832.939L7482.82 567.02H7525.99L7649.92 832.939H7604.23L7568.87 756.61H7442.31L7409.15 832.939H7366.52ZM9474.65 727.907H9577.43L9524.32 594.805L9474.65 727.907ZM9387.28 832.939L9503.57 567.02H9546.75L9670.6 832.939H9625.09L9589.66 756.61H9463.11L9429.9 832.939H9387.28ZM4721.97 1382.83H4791.73C4920.18 1382.83 4979.43 1178.36 4817.15 1178.36H4721.97V1382.83ZM4638.4 1661.93V1132.34H4868.28C4901.26 1132.34 5002.69 1164.92 5002.26 1265.88C5001.89 1351.51 4931.4 1389.95 4879.57 1412.7L5074.54 1661.93H4985.13L4804.47 1426.86H4722V1661.93H4638.4ZM6998.21 693.342H7033.53C7098.54 693.342 7128.46 589.936 7046.42 589.936H6998.28V693.342H6998.21ZM6956.03 834.484V566.578H7072.28C7088.97 566.578 7140.25 583 7140.07 634.068C7139.93 677.377 7104.21 696.78 7078.05 708.428L7176.67 834.389H7131.42L7039.92 715.455H6998.28V834.484H6956.03ZM3936.72 693.342H3972.04C4037.06 693.342 4066.97 589.936 3984.94 589.936H3936.83V693.342H3936.72ZM3894.47 834.484V566.578H4010.72C4027.42 566.578 4078.7 583 4078.44 634.068C4078.26 677.377 4043.01 698.577 4017.15 710.762C4003.89 716.529 3994.69 715.189 3978.36 715.536H3936.62V834.469L3894.47 834.484ZM3617.43 1132.87H3797.46C3834.02 1132.87 3863.42 1138.37 3885.59 1148.93C3907.76 1159.49 3929.24 1171.85 3941.77 1193.87C3988.99 1277.24 3917.62 1362.51 3839.46 1381.91C3894.61 1399.5 3979.71 1453.83 3979.71 1506.52C3981.32 1580.33 3943.48 1636.38 3877.77 1650.17C3856.77 1655.94 3830.88 1659.01 3800.34 1659.01H3617.43V1132.87ZM3693.43 1609.24H3762.83C3808.2 1609.24 3864.63 1600.2 3883.91 1561.68C3890.38 1547.86 3893.63 1532.73 3893.37 1517.47C3893.77 1499.43 3889.02 1481.65 3879.67 1466.22C3856.41 1429.59 3791.43 1407.94 3754.36 1407.94H3693.43V1609.24ZM3693.43 1362.35H3768.05C3803.67 1362.35 3841.25 1348.09 3865.25 1312.09C3873.87 1298.33 3878.14 1282.29 3877.52 1266.07C3877.52 1248.83 3873.72 1233.32 3866.16 1220.05C3842.64 1179.35 3797.75 1178.27 3760.13 1178.27H3693.43V1362.35ZM2511.45 831.679H2539.84V565.946H2511.45V831.679ZM2680.47 831.679H2708.87V565.946H2680.47V831.679Z" fill="black"/>
<path fill-rule="evenodd" clip-rule="evenodd" d="M2676.88 703.197V685.416H2538.14V703.197H2676.88ZM3098.49 555.2C3165.01 555.2 3219.36 620.988 3219.36 701.462C3219.36 781.937 3165.01 847.725 3098.49 847.725C3031.87 847.725 2977.52 781.937 2977.52 701.462C2977.52 620.988 3031.77 555.2 3098.49 555.2ZM3098.49 583.712C3149.33 583.712 3190.88 636.592 3190.88 701.462C3190.88 766.337 3149.33 819.135 3098.49 819.135C3047.55 819.135 3006 766.256 3006 701.382C3006 636.511 3047.46 583.712 3098.49 583.712Z" fill="black"/>
</mask>
<g mask="url(#mask0_226_591)">
<path fill-rule="evenodd" clip-rule="evenodd" d="M7427.19 1573.14C7438.3 1589.74 7462.8 1593.44 7485.96 1603.64C7548.09 1633.96 7654.37 1626.74 7693.13 1566.28C7718.55 1474.97 7635.78 1441.13 7597.21 1421.55C7516.79 1384.92 7418.97 1334.11 7425.84 1245.69C7421.75 1174.5 7520.4 1118.47 7584.1 1118.47C7640.53 1122.9 7697.33 1121.98 7735.46 1144.9L7731.4 1203.37C7711.21 1186.78 7646.67 1166.92 7607.37 1166.92C7558.5 1166.92 7499.84 1178.91 7498.3 1238.3C7498.3 1299.12 7567.88 1336.47 7613.07 1355.15C7725.27 1401.71 7818.22 1471.28 7750.98 1592.56C7715.44 1647.69 7640.46 1669.25 7577.89 1669.25C7531.47 1669.25 7457.73 1658.33 7426.53 1644.62L7427.19 1573.14ZM6542.53 789.549C6548.12 797.855 6560.46 799.747 6572.26 804.887C6603.71 820.22 6657.36 816.706 6677.01 786.207C6689.98 739.822 6648.09 722.772 6628.51 712.935C6587.86 694.431 6538.37 668.727 6541.8 624.136C6539.83 588.044 6589.57 559.627 6621.94 559.627C6650.42 561.881 6679.17 561.439 6698.49 572.977L6696.48 602.575C6686.29 594.097 6653.6 584.074 6633.73 584.074C6609.04 584.074 6579.31 590.203 6578.58 620.166C6578.58 651.027 6613.83 669.703 6636.73 679.364C6693.52 702.832 6740.49 738.01 6706.49 799.367C6688.45 827.252 6650.61 838.173 6618.87 838.173C6595.42 838.173 6558.09 832.577 6542.24 825.626L6542.53 789.549ZM3475.55 789.549C3481.14 797.855 3493.48 799.747 3505.29 804.887C3536.75 820.22 3590.47 816.706 3610.12 786.207C3623.02 739.822 3581.18 722.772 3561.63 712.935C3520.97 694.431 3471.49 668.727 3474.9 624.136C3472.92 588.044 3522.77 559.627 3554.95 559.627C3583.53 561.881 3612.28 561.439 3631.57 572.977L3629.58 602.575C3619.4 594.097 3586.68 584.074 3566.76 584.074C3542.06 584.074 3512.31 590.203 3511.59 620.166C3511.59 651.027 3546.84 669.703 3569.74 679.364C3626.43 702.832 3673.49 738.01 3639.5 799.367C3621.57 827.252 3583.61 838.173 3551.98 838.173C3528.45 838.173 3491.21 832.577 3475.36 825.626L3475.55 789.549ZM6820.52 1661.75V1133.06H6896.45L7189.86 1548.15V1133.06H7260.79V1661.75H7185L6891.49 1246.23V1661.75H6820.52ZM9231.54 1661.75V1133.06H9307.33L9600.73 1548.15V1133.06H9671.7V1661.75H9595.8L9302.29 1246.23V1661.75H9231.54ZM6551.7 1658.94V1131.98H6622.74V1658.94H6551.7ZM4320.27 832.939V566.483H4356.25V832.939H4320.27ZM8955.52 1658.94V1131.98H9026.53V1658.94H8955.52ZM8701.46 832.939V566.483H8737.44V832.939H8701.46ZM6251.47 832.939V566.483H6287.41V832.939H6251.47ZM5349.53 1658.94V1175.55H5126.88V1130.79H5639.9V1175.55H5420.61V1658.94H5349.53ZM8073.24 1658.94V1175.55H7850.58V1130.79H8363.72V1175.55H8144.31V1658.94H8073.24ZM9077.92 832.939V588.501H8965.24V565.76H9224.78V588.501H9113.78V832.939H9077.92ZM4696.54 832.939V588.501H4583.87V565.76H4843.41V588.501H4732.52V832.939H4696.54ZM4141.44 1658.94V1132.34H4479.22V1182.06H4221.4V1359.91H4440.43V1409.27H4221.4V1609.24H4498.58V1658.96L4141.44 1658.94ZM6076.37 1658.94V1132.34H6414.15V1182.06H6156.32V1359.91H6375.47V1409.27H6156.32V1609.24H6433.69V1658.96L6076.37 1658.94ZM8476.1 1658.94V1132.34H8813.88V1182.06H8556.06V1359.91H8775.13V1409.27H8556.06V1609.24H8833.35V1658.96L8476.1 1658.94ZM7877.72 832.939V566.658H8048.66V591.829H7918.3V681.698H8029.01V706.507H7918.3V807.831H8058.48V832.924L7877.72 832.939ZM3125.06 1658.94V1135.31H3204.57V1605.53H3481.58V1658.94H3125.06ZM8302.87 832.939V568.185H8343.04V805.957H8483.15V832.939H8302.87ZM5495.23 832.939V568.185H5535.33V805.957H5675.58V832.939H5495.23ZM2601.59 1451.14H2804.69L2699.67 1188.19L2601.59 1451.14ZM2428.88 1658.94L2658.84 1132.87H2744.12L2989.13 1658.94H2898.8L2829.03 1507.89H2578.7L2512.98 1658.94H2428.88ZM5075.41 727.907H5178.19L5125.09 594.805L5075.41 727.907ZM4988.16 832.939L5104.45 567.02H5147.62L5271.55 832.939H5225.86L5190.5 756.61H5063.87L5030.71 832.939H4988.16ZM7453.96 727.907H7556.63L7503.53 594.805L7453.96 727.907ZM7366.52 832.939L7482.82 567.02H7525.99L7649.92 832.939H7604.23L7568.87 756.61H7442.31L7409.15 832.939H7366.52ZM9474.65 727.907H9577.43L9524.32 594.805L9474.65 727.907ZM9387.28 832.939L9503.57 567.02H9546.75L9670.6 832.939H9625.09L9589.66 756.61H9463.11L9429.9 832.939H9387.28ZM4721.97 1382.83H4791.73C4920.18 1382.83 4979.43 1178.36 4817.15 1178.36H4721.97V1382.83ZM4638.4 1661.93V1132.34H4868.28C4901.26 1132.34 5002.69 1164.92 5002.26 1265.88C5001.89 1351.51 4931.4 1389.95 4879.57 1412.7L5074.54 1661.93H4985.13L4804.47 1426.86H4722V1661.93H4638.4ZM6998.21 693.342H7033.53C7098.54 693.342 7128.46 589.936 7046.42 589.936H6998.28V693.342H6998.21ZM6956.03 834.484V566.578H7072.28C7088.97 566.578 7140.25 583 7140.07 634.068C7139.93 677.377 7104.21 696.78 7078.05 708.428L7176.67 834.389H7131.42L7039.92 715.455H6998.28V834.484H6956.03ZM3936.72 693.342H3972.04C4037.06 693.342 4066.97 589.936 3984.94 589.936H3936.83V693.342H3936.72ZM3894.47 834.484V566.578H4010.72C4027.42 566.578 4078.7 583 4078.44 634.068C4078.26 677.377 4043.01 698.577 4017.15 710.762C4003.89 716.529 3994.69 715.189 3978.36 715.536H3936.62V834.469L3894.47 834.484ZM3617.43 1132.87H3797.46C3834.02 1132.87 3863.42 1138.37 3885.59 1148.93C3907.76 1159.49 3929.24 1171.85 3941.77 1193.87C3988.99 1277.24 3917.62 1362.51 3839.46 1381.91C3894.61 1399.5 3979.71 1453.83 3979.71 1506.52C3981.32 1580.33 3943.48 1636.38 3877.77 1650.17C3856.77 1655.94 3830.88 1659.01 3800.34 1659.01H3617.43V1132.87ZM3693.43 1609.24H3762.83C3808.2 1609.24 3864.63 1600.2 3883.91 1561.68C3890.38 1547.86 3893.63 1532.73 3893.37 1517.47C3893.77 1499.43 3889.02 1481.65 3879.67 1466.22C3856.41 1429.59 3791.43 1407.94 3754.36 1407.94H3693.43V1609.24ZM3693.43 1362.35H3768.05C3803.67 1362.35 3841.25 1348.09 3865.25 1312.09C3873.87 1298.33 3878.14 1282.29 3877.52 1266.07C3877.52 1248.83 3873.72 1233.32 3866.16 1220.05C3842.64 1179.35 3797.75 1178.27 3760.13 1178.27H3693.43V1362.35ZM2511.45 831.679H2539.84V565.946H2511.45V831.679ZM2680.47 831.679H2708.87V565.946H2680.47V831.679Z" stroke="#A8AFAF" stroke-width="2"/>
</g>
<mask id="mask1_226_591" style="mask-type:luminance" maskUnits="userSpaceOnUse" x="2421" y="551" width="7258" height="1122">
<path d="M9679 551.547H2421.58V1672.91H9679V551.547Z" fill="white"/>
<path fill-rule="evenodd" clip-rule="evenodd" d="M7427.19 1573.14C7438.3 1589.74 7462.8 1593.44 7485.96 1603.64C7548.09 1633.96 7654.37 1626.74 7693.13 1566.28C7718.55 1474.97 7635.78 1441.13 7597.21 1421.55C7516.79 1384.92 7418.97 1334.11 7425.84 1245.69C7421.75 1174.5 7520.4 1118.47 7584.1 1118.47C7640.53 1122.9 7697.33 1121.98 7735.46 1144.9L7731.4 1203.37C7711.21 1186.78 7646.67 1166.92 7607.37 1166.92C7558.5 1166.92 7499.84 1178.91 7498.3 1238.3C7498.3 1299.12 7567.88 1336.47 7613.07 1355.15C7725.27 1401.71 7818.22 1471.28 7750.98 1592.56C7715.44 1647.69 7640.46 1669.25 7577.89 1669.25C7531.47 1669.25 7457.73 1658.33 7426.53 1644.62L7427.19 1573.14ZM6542.53 789.549C6548.12 797.855 6560.46 799.747 6572.26 804.887C6603.71 820.22 6657.36 816.706 6677.01 786.207C6689.98 739.822 6648.09 722.772 6628.51 712.935C6587.86 694.431 6538.37 668.727 6541.8 624.136C6539.83 588.044 6589.57 559.627 6621.94 559.627C6650.42 561.881 6679.17 561.439 6698.49 572.977L6696.48 602.575C6686.29 594.097 6653.6 584.074 6633.73 584.074C6609.04 584.074 6579.31 590.203 6578.58 620.166C6578.58 651.027 6613.83 669.703 6636.73 679.364C6693.52 702.832 6740.49 738.01 6706.49 799.367C6688.45 827.252 6650.61 838.173 6618.87 838.173C6595.42 838.173 6558.09 832.577 6542.24 825.626L6542.53 789.549ZM3475.55 789.549C3481.14 797.855 3493.48 799.747 3505.29 804.887C3536.75 820.22 3590.47 816.706 3610.12 786.207C3623.02 739.822 3581.18 722.772 3561.63 712.935C3520.97 694.431 3471.49 668.727 3474.9 624.136C3472.92 588.044 3522.77 559.627 3554.95 559.627C3583.53 561.881 3612.28 561.439 3631.57 572.977L3629.58 602.575C3619.4 594.097 3586.68 584.074 3566.76 584.074C3542.06 584.074 3512.31 590.203 3511.59 620.166C3511.59 651.027 3546.84 669.703 3569.74 679.364C3626.43 702.832 3673.49 738.01 3639.5 799.367C3621.57 827.252 3583.61 838.173 3551.98 838.173C3528.45 838.173 3491.21 832.577 3475.36 825.626L3475.55 789.549ZM6820.52 1661.75V1133.06H6896.45L7189.86 1548.15V1133.06H7260.79V1661.75H7185L6891.49 1246.23V1661.75H6820.52ZM9231.54 1661.75V1133.06H9307.33L9600.73 1548.15V1133.06H9671.7V1661.75H9595.8L9302.29 1246.23V1661.75H9231.54ZM6551.7 1658.94V1131.98H6622.74V1658.94H6551.7ZM4320.27 832.939V566.483H4356.25V832.939H4320.27ZM8955.52 1658.94V1131.98H9026.53V1658.94H8955.52ZM8701.46 832.939V566.483H8737.44V832.939H8701.46ZM6251.47 832.939V566.483H6287.41V832.939H6251.47ZM5349.53 1658.94V1175.55H5126.88V1130.79H5639.9V1175.55H5420.61V1658.94H5349.53ZM8073.24 1658.94V1175.55H7850.58V1130.79H8363.72V1175.55H8144.31V1658.94H8073.24ZM9077.92 832.939V588.501H8965.24V565.76H9224.78V588.501H9113.78V832.939H9077.92ZM4696.54 832.939V588.501H4583.87V565.76H4843.41V588.501H4732.52V832.939H4696.54ZM4141.44 1658.94V1132.34H4479.22V1182.06H4221.4V1359.91H4440.43V1409.27H4221.4V1609.24H4498.58V1658.96L4141.44 1658.94ZM6076.37 1658.94V1132.34H6414.15V1182.06H6156.32V1359.91H6375.47V1409.27H6156.32V1609.24H6433.69V1658.96L6076.37 1658.94ZM8476.1 1658.94V1132.34H8813.88V1182.06H8556.06V1359.91H8775.13V1409.27H8556.06V1609.24H8833.35V1658.96L8476.1 1658.94ZM7877.72 832.939V566.658H8048.66V591.829H7918.3V681.698H8029.01V706.507H7918.3V807.831H8058.48V832.924L7877.72 832.939ZM3125.06 1658.94V1135.31H3204.57V1605.53H3481.58V1658.94H3125.06ZM8302.87 832.939V568.185H8343.04V805.957H8483.15V832.939H8302.87ZM5495.23 832.939V568.185H5535.33V805.957H5675.58V832.939H5495.23ZM2601.59 1451.14H2804.69L2699.67 1188.19L2601.59 1451.14ZM2428.88 1658.94L2658.84 1132.87H2744.12L2989.13 1658.94H2898.8L2829.03 1507.89H2578.7L2512.98 1658.94H2428.88ZM5075.41 727.907H5178.19L5125.09 594.805L5075.41 727.907ZM4988.16 832.939L5104.45 567.02H5147.62L5271.55 832.939H5225.86L5190.5 756.61H5063.87L5030.71 832.939H4988.16ZM7453.96 727.907H7556.63L7503.53 594.805L7453.96 727.907ZM7366.52 832.939L7482.82 567.02H7525.99L7649.92 832.939H7604.23L7568.87 756.61H7442.31L7409.15 832.939H7366.52ZM9474.65 727.907H9577.43L9524.32 594.805L9474.65 727.907ZM9387.28 832.939L9503.57 567.02H9546.75L9670.6 832.939H9625.09L9589.66 756.61H9463.11L9429.9 832.939H9387.28ZM4721.97 1382.83H4791.73C4920.18 1382.83 4979.43 1178.36 4817.15 1178.36H4721.97V1382.83ZM4638.4 1661.93V1132.34H4868.28C4901.26 1132.34 5002.69 1164.92 5002.26 1265.88C5001.89 1351.51 4931.4 1389.95 4879.57 1412.7L5074.54 1661.93H4985.13L4804.47 1426.86H4722V1661.93H4638.4ZM6998.21 693.342H7033.53C7098.54 693.342 7128.46 589.936 7046.42 589.936H6998.28V693.342H6998.21ZM6956.03 834.484V566.578H7072.28C7088.97 566.578 7140.25 583 7140.07 634.068C7139.93 677.377 7104.21 696.78 7078.05 708.428L7176.67 834.389H7131.42L7039.92 715.455H6998.28V834.484H6956.03ZM3936.72 693.342H3972.04C4037.06 693.342 4066.97 589.936 3984.94 589.936H3936.83V693.342H3936.72ZM3894.47 834.484V566.578H4010.72C4027.42 566.578 4078.7 583 4078.44 634.068C4078.26 677.377 4043.01 698.577 4017.15 710.762C4003.89 716.529 3994.69 715.189 3978.36 715.536H3936.62V834.469L3894.47 834.484ZM3617.43 1132.87H3797.46C3834.02 1132.87 3863.42 1138.37 3885.59 1148.93C3907.76 1159.49 3929.24 1171.85 3941.77 1193.87C3988.99 1277.24 3917.62 1362.51 3839.46 1381.91C3894.61 1399.5 3979.71 1453.83 3979.71 1506.52C3981.32 1580.33 3943.48 1636.38 3877.77 1650.17C3856.77 1655.94 3830.88 1659.01 3800.34 1659.01H3617.43V1132.87ZM3693.43 1609.24H3762.83C3808.2 1609.24 3864.63 1600.2 3883.91 1561.68C3890.38 1547.86 3893.63 1532.73 3893.37 1517.47C3893.77 1499.43 3889.02 1481.65 3879.67 1466.22C3856.41 1429.59 3791.43 1407.94 3754.36 1407.94H3693.43V1609.24ZM3693.43 1362.35H3768.05C3803.67 1362.35 3841.25 1348.09 3865.25 1312.09C3873.87 1298.33 3878.14 1282.29 3877.52 1266.07C3877.52 1248.83 3873.72 1233.32 3866.16 1220.05C3842.64 1179.35 3797.75 1178.27 3760.13 1178.27H3693.43V1362.35ZM2511.45 831.679H2539.84V565.946H2511.45V831.679ZM2680.47 831.679H2708.87V565.946H2680.47V831.679Z" fill="black"/>
<path fill-rule="evenodd" clip-rule="evenodd" d="M2676.88 703.197V685.416H2538.14V703.197H2676.88ZM3098.49 555.2C3165.01 555.2 3219.36 620.988 3219.36 701.462C3219.36 781.937 3165.01 847.725 3098.49 847.725C3031.87 847.725 2977.52 781.937 2977.52 701.462C2977.52 620.988 3031.77 555.2 3098.49 555.2ZM3098.49 583.712C3149.33 583.712 3190.88 636.592 3190.88 701.462C3190.88 766.337 3149.33 819.135 3098.49 819.135C3047.55 819.135 3006 766.256 3006 701.382C3006 636.511 3047.46 583.712 3098.49 583.712Z" fill="black"/>
</mask>
<g mask="url(#mask1_226_591)">
<path fill-rule="evenodd" clip-rule="evenodd" d="M2676.88 703.197V685.416H2538.14V703.197H2676.88ZM3098.49 555.2C3165.01 555.2 3219.36 620.988 3219.36 701.462C3219.36 781.937 3165.01 847.725 3098.49 847.725C3031.87 847.725 2977.52 781.937 2977.52 701.462C2977.52 620.988 3031.77 555.2 3098.49 555.2ZM3098.49 583.712C3149.33 583.712 3190.88 636.592 3190.88 701.462C3190.88 766.337 3149.33 819.135 3098.49 819.135C3047.55 819.135 3006 766.256 3006 701.382C3006 636.511 3047.46 583.712 3098.49 583.712Z" stroke="#A8AFAF" stroke-width="2"/>
</g>
</svg>
